<?xml version="1.0" encoding="utf-8"?>
<!-- Generator: Adobe Illustrator 22.1.0, SVG Export Plug-In . SVG Version: 6.00 Build 0)  -->
<svg version="1.1" id="Layer_1" xmlns="http://www.w3.org/2000/svg" xmlns:xlink="http://www.w3.org/1999/xlink" x="0px" y="0px"
	 viewBox="0 0 457 378" style="enable-background:new 0 0 457 378;" xml:space="preserve">
<style type="text/css">
	.st0{fill:#00BCD4;}
	.st1{fill:#B49DBA;}
	.st2{fill:#95E8EF;}
	.st3{fill:#FFCCAA;}
	.st4{fill:#FFD4B2;}
	.st5{opacity:0.2;}
	.st6{fill:#693913;}
	.st7{fill:#0D5434;}
	.st8{fill:#153648;}
	.st9{opacity:0.3;}
	.st10{fill:#6D5539;}
	.st11{fill:#0E7735;}
	.st12{fill:#BEBFC3;}
	.st13{fill:#2D2D2D;}
	.st14{fill:#989D97;}
	.st15{fill:#0065BD;}
	.st16{fill:#E6B496;}
	.st17{fill:#4DBACC;}
	.st18{fill:#43A3B3;}
	.st19{fill:#FF745F;}
	.st20{fill:#FE4230;}
	.st21{fill:#FCBB47;}
	.st22{fill:#FFCC9A;}
	.st23{fill:#474747;}
	.st24{fill:#64CEDE;}
	.st25{fill:#FFDAB7;}
	.st26{fill:#232323;}
	.st27{fill:#3F3029;}
	.st28{fill:#FFFFFF;}
	.st29{fill:#444444;}
	.st30{fill:#886F8E;}
	.st31{fill:#DCDCDC;}
	.st32{fill:#67564C;}
	.st33{opacity:0.2;fill:#1E1E1E;}
	.st34{fill:#008272;}
	.st35{opacity:0.2;fill:#FFFFFF;}
	.st36{fill:#F0F0F0;}
	.st37{opacity:0.3;fill:#FFFFFF;}
	.st38{fill:#D4D4D4;}
	.st39{opacity:0.2;fill:#00B0C3;}
	.st40{fill:#F7BB96;}
	.st41{fill:#7C4C2F;}
	.st42{fill:#F5C1A1;}
	.st43{clip-path:url(#SVGID_2_);fill:#95E8EF;}
	.st44{clip-path:url(#SVGID_2_);}
	.st45{fill:#3F423D;}
	.st46{fill:#AAAAAA;}
	.st47{fill:#347F8C;}
	.st48{fill:#29292B;}
	.st49{fill:#49B3C4;}
	.st50{fill:#935325;}
	.st51{fill:#DDB170;}
	.st52{fill:#0E2430;}
	.st53{fill:#9F79A8;}
	.st54{fill:#F3BF9F;}
	.st55{opacity:0.1;}
	.st56{fill:#482108;}
	.st57{fill:#BFB594;}
	.st58{fill:#EBCD90;}
	.st59{fill:#D4B485;}
	.st60{fill:#E0D3AD;}
	.st61{fill:#E6D8B1;}
	.st62{opacity:0.2;fill:#322D34;}
</style>
<g>
	<g>
		<g>
			<g>
				
					<ellipse transform="matrix(0.7071 -0.7071 0.7071 0.7071 -85.9301 226.0742)" class="st0" cx="229.9" cy="216.8" rx="142.2" ry="142.2"/>
				<ellipse class="st1" cx="233" cy="322.7" rx="85" ry="7.8"/>
				<path class="st2" d="M69.5,168.7c-4.2,0-7.7-3.4-7.7-7.7c0-4.2,3.4-7.7,7.7-7.7c4.2,0,7.7,3.4,7.7,7.7
					C77.1,165.2,73.7,168.7,69.5,168.7z M69.5,154.8c-3.4,0-6.2,2.8-6.2,6.2c0,3.4,2.8,6.2,6.2,6.2c3.4,0,6.2-2.8,6.2-6.2
					C75.7,157.6,72.9,154.8,69.5,154.8z"/>
				<path class="st2" d="M376.5,140.3c-3.1,0-5.6-2.5-5.6-5.6c0-3.1,2.5-5.6,5.6-5.6c3.1,0,5.6,2.5,5.6,5.6
					C382.1,137.8,379.6,140.3,376.5,140.3z M376.5,130.6c-2.3,0-4.2,1.9-4.2,4.2c0,2.3,1.9,4.2,4.2,4.2c2.3,0,4.2-1.9,4.2-4.2
					C380.7,132.5,378.8,130.6,376.5,130.6z"/>
				<path class="st2" d="M328.7,357.7c-3.1,0-5.6-2.5-5.6-5.6c0-3.1,2.5-5.6,5.6-5.6c3.1,0,5.6,2.5,5.6,5.6
					C334.3,355.2,331.8,357.7,328.7,357.7z M328.7,348c-2.3,0-4.2,1.9-4.2,4.2c0,2.3,1.9,4.2,4.2,4.2c2.3,0,4.2-1.9,4.2-4.2
					C332.9,349.8,331,348,328.7,348z"/>
				<path class="st2" d="M226.4,55.3c-3.2,0-5.8-2.6-5.8-5.8c0-3.2,2.6-5.8,5.8-5.8s5.8,2.6,5.8,5.8
					C232.2,52.7,229.6,55.3,226.4,55.3z M226.4,45.1c-2.4,0-4.4,2-4.4,4.4c0,2.4,2,4.4,4.4,4.4c2.4,0,4.4-2,4.4-4.4
					C230.8,47.1,228.8,45.1,226.4,45.1z"/>
				<path class="st0" d="M259.4,44.4c0,5.2-4.2,9.4-9.4,9.4c-5.2,0-9.4-4.2-9.4-9.4s4.2-9.4,9.4-9.4
					C255.2,34.9,259.4,39.2,259.4,44.4z"/>
				<path class="st0" d="M132.3,351.2c0,3.3-2.7,5.9-5.9,5.9c-3.3,0-5.9-2.7-5.9-5.9c0-3.3,2.7-5.9,5.9-5.9
					C129.7,345.2,132.3,347.9,132.3,351.2z"/>
				<path class="st0" d="M156.2,68.4c0,3.3-2.7,5.9-5.9,5.9c-3.3,0-5.9-2.7-5.9-5.9s2.7-5.9,5.9-5.9
					C153.5,62.5,156.2,65.1,156.2,68.4z"/>
				<path class="st0" d="M405.5,179.6c0,4.7-3.8,8.6-8.6,8.6c-4.7,0-8.6-3.8-8.6-8.6c0-4.7,3.8-8.6,8.6-8.6
					C401.7,171,405.5,174.8,405.5,179.6z"/>
				<path class="st2" d="M116.2,333.8c0,4.8-3.9,8.8-8.8,8.8c-4.8,0-8.8-3.9-8.8-8.8c0-4.8,3.9-8.8,8.8-8.8
					C112.3,325,116.2,328.9,116.2,333.8z"/>
				<circle class="st0" cx="78.7" cy="136.5" r="5.1"/>
				<path class="st0" d="M374.9,337.2c0,1.9-1.5,3.4-3.4,3.4s-3.4-1.5-3.4-3.4c0-1.9,1.5-3.4,3.4-3.4S374.9,335.3,374.9,337.2z"/>
				<path class="st2" d="M417.4,194.2c0,1.9-1.5,3.4-3.4,3.4s-3.4-1.5-3.4-3.4c0-1.9,1.5-3.4,3.4-3.4S417.4,192.3,417.4,194.2z"/>
				<path class="st0" d="M354.4,337.2c0,3.9-3.1,7-7,7c-3.9,0-7-3.1-7-7c0-3.9,3.1-7,7-7C351.2,330.2,354.4,333.3,354.4,337.2z"/>
				<path class="st2" d="M150.4,248.7c0,33.1-26.8,59.9-59.9,59.9c-33.1,0-59.9-26.8-59.9-59.9s26.8-59.9,59.9-59.9
					C123.6,188.9,150.4,215.7,150.4,248.7z"/>
				<path class="st2" d="M426.4,257.3c0,30.7-24.9,55.6-55.6,55.6c-30.7,0-55.6-24.9-55.6-55.6c0-30.7,24.9-55.6,55.6-55.6
					C401.5,201.7,426.4,226.6,426.4,257.3z"/>
				<path class="st2" d="M229.9,370.7c-45.1,0-87.7-19.6-117-53.9c-7.2,2.4-14.7,3.6-22.4,3.6c-39.5,0-71.6-32.1-71.6-71.6
					c0-35.9,26.6-66.3,62.1-71c17.7-67.7,78.8-114.9,149-114.9c12.3,0,24.5,1.5,36.4,4.3c2.7-33.7,30.8-59.9,64.9-59.9
					c35.9,0,65,29.2,65,65.1c0,25.6-14.9,48.6-38,59.2c12,18,19.9,37.9,23.5,59.2c32.2,5.3,56.4,33.7,56.4,66.5
					c0,37.2-30.2,67.4-67.4,67.4c-9,0-17.8-1.8-26.1-5.2C315.5,352.1,273.7,370.7,229.9,370.7z M113.9,313.2l0.7,0.8
					c28.8,34.1,70.8,53.6,115.4,53.6c43.3,0,84.5-18.6,113.2-51.1l0.7-0.8l1,0.5c8.2,3.6,16.9,5.4,25.9,5.4
					c35.5,0,64.3-28.9,64.3-64.3c0-31.7-23.6-59-54.9-63.6l-1.1-0.2l-0.2-1.1c-3.6-21.9-11.7-42.3-24.3-60.6l-1.1-1.6l1.7-0.7
					c23-9.7,37.9-32.2,37.9-57.1c0-34.2-27.8-62-62-62c-33,0-60.2,25.8-61.9,58.8l-0.1,1.9l-1.8-0.5c-12.2-3.1-24.8-4.7-37.4-4.7
					c-69.1,0-129.3,46.7-146.3,113.6l-0.3,1l-1,0.1c-34.4,4.1-60.4,33.3-60.4,68.1c0,37.8,30.8,68.6,68.6,68.6
					c7.7,0,15.2-1.3,22.4-3.7L113.9,313.2z"/>
			</g>
			<g>
				<g>
					<g>
						<g>
							<path class="st3" d="M344.2,247.4c0.3-0.5,0.5-1.5,0.7-2.4c0.1-0.3,0.1-0.6,0.2-0.9c0.1-0.9,0.2-1.5,0.2-1.5s4.5,2.1,3.5,3.4
								c-0.1,0.1-0.1,0.2-0.2,0.3c-0.2,0.3-0.2,0.6-0.3,0.9c-0.2,1.2,0.2,2.4,0.2,2.4S345.1,248.4,344.2,247.4z"/>
							<path class="st4" d="M350.1,236.9c0.6,0.5,0.8,1.4,0.9,2.1c0.1,0.7,0.3,1.2,0.2,1.3c-0.1,0.2-0.1,0.3-0.2,0.5
								c-0.1,0.1,0.7,2.3,0.6,2.5c-0.1,0.2-0.6,0.2-0.7,0.2c-0.2,0-0.3,0.3-0.3,0.5c0,0.2,0.3,0.4,0.2,0.5c-0.2,0.2-0.6,0.1-0.6,0.1
								s0.5,0.1,0.4,0.4c-0.1,0.1-0.2,0.1-0.4,0.2c-0.1,0.1,0.2,0.9,0,1.1c-0.7,0.7-2.5-0.1-3.8-0.8c-0.9-1-1.7-1.5-1.9-1.6
								c-0.4-0.3-2-3.8-1.3-5.2c0.7-1.4,2-2.6,3.3-2.6C347.9,235.9,349.3,236.1,350.1,236.9z"/>
							<path class="st5" d="M348.6,246.3c-0.2,0.3-0.2,0.6-0.3,0.9c-0.7-0.2-3.3-2.8-3.2-3.1c0.4,0.3,0.8,0.8,1.4,1.3
								C347.1,245.9,347.9,246.1,348.6,246.3z"/>
							<path class="st6" d="M352.3,237.1c-0.4,0.1-0.8,0.2-1.3-0.1c-0.5-0.3-1.5-1.4-3.2-1.7c-1.7-0.3-3.3-0.1-4.4,1.3
								c-0.5,0.6-1.1,1.9-0.9,3.2c0.2,1.3,0.9,2.4,1.3,3.2c0.6,1,1.3,1.9,1.2,2.1c0.6-0.7,0.7-2.5,0.8-2.9c-0.2-0.2-1-1.7-0.2-2.2
								c0.8-0.4,1.5,0.5,1.8,1.6c0.4-1.1,0.5-2.3,1.1-3.1c0.5-0.4,2.2-0.1,2.7-0.3C351.9,238,352.2,237.4,352.3,237.1z"/>
						</g>
						<path class="st7" d="M351.8,267.2l-7.6,0.8c0,0-1.2-12.6-1.7-16.5c-0.2-1.8,1.8-4.4,1.9-4.8c1.3,1.8,3.4,2.6,3.8,2.1
							c0.3,0.2,2.3,1.8,2.9,2.8c0.6,1,0.5,4.4,0.5,5.9C351.5,259.1,351.5,266.3,351.8,267.2z"/>
						<path class="st5" d="M342.6,251.6c0.4,3.9,1.7,16.5,1.7,16.5l0.8-0.1C344.7,263.6,342.5,250.8,342.6,251.6z"/>
						<path class="st8" d="M367.9,288.7c-0.1-0.5-0.3-1-0.3-1.4c-0.1-0.4-0.1-0.8-0.1-0.9c0-0.2,0-0.3,0.1-0.4
							c0.1-0.1,1.3,0.5,2.1,0c0.2-0.1,1.5-1.7,1.7-1.6c0.3,0.1,1.8,0.4,2.7,0.3c0.7,0,1.2-0.1,1.7-0.3c0.2-0.1,0.4-0.2,0.7-0.3
							c0.3-0.2,0.7-0.3,1-0.1c0.2,0.1,0.4,0.4,0.4,0.7c0,0,0,0.1,0,0.1c-0.1,0.4-0.3,1.2-1.3,2.1c-0.2,0.2-0.6,0.4-0.8,0.5l-1.5,0.7
							c-0.2,0.1-0.6,0.2-0.9,0.2c-0.2,0-0.4,0-0.6,0c-0.2,0-0.2,0.1-0.3,0.2c-0.1,0.2-0.1,0.4-0.1,0.4c0,0,0,0-0.1,0l-1.9,0.9
							c-0.8,0.2-1.6,0.3-1.9,0.2c-0.1-0.1-0.3-0.4-0.4-0.8C368,289,368,288.9,367.9,288.7z"/>
						<path class="st9" d="M377.6,284c0,0.1,0.1,0.2,0.1,0.3c0,0,0,0.1,0,0.1c-0.1,0.4-0.3,1.2-1.3,2.1c-0.2,0.2-0.5,0.4-0.8,0.5
							l-1.6,0.7c-0.2,0.1-0.6,0.2-0.9,0.2c-0.2,0-0.4,0-0.6,0c-0.2,0-0.2,0.1-0.3,0.2c-0.1,0.2-0.1,0.4-0.1,0.4c0,0,0,0,0,0
							l-1.9,0.9c-0.8,0.2-1.5,0.3-1.9,0.2c0.1,0.1,0.1,0.2,0.2,0.3c0.3,0.1,1.1,0,1.9-0.2l1.9-0.9c0,0,0,0,0.1,0
							c0,0,0.1-0.2,0.1-0.4c0-0.1,0.1-0.2,0.3-0.2c0.1,0,0.4,0,0.6,0c0.3,0,0.7-0.1,0.9-0.2l1.5-0.7c0.2-0.1,0.6-0.3,0.8-0.5
							c1-0.9,1.2-1.7,1.3-2.1c0,0,0-0.1,0-0.1C377.9,284.3,377.8,284.1,377.6,284z"/>
						<path class="st10" d="M372.7,284.7c0,0-5.2-14.8-5.7-15.3c-0.8-0.8-12.2-0.3-13.2-0.8c-1.1-0.6-2-1.3-2-1.3l-7.3-0.1
							c-1.2,4.4,1.4,7.4,1.9,8h17.5c1.8,5.4,3.5,11.9,3.5,11.9L372.7,284.7z"/>
						<path class="st5" d="M368.3,286.9c0,0-2.7-7-4.4-12.3c0,0-12.2,0.8-17.5,0c-0.6-0.1-2.1-2.3-2.2-5.3c-0.1,3.3,1.8,5.5,2.2,6
							h17.5c1.8,5.4,3.5,11.9,3.5,11.9L368.3,286.9z"/>
						<path class="st3" d="M349.7,260.7c0,0-4.3,0.7-4.2,1.1c0.1,0.4,0.1,2.7,2.1,3.5c2,0.8,8.8,0.5,10,0.5c3.2-0.1,4.8,1.8,5.1,1.6
							c0.7-0.3-0.3-2.3-1.9-2.9c-1-0.4-2-0.4-2.9-0.5c-0.9-0.1-7-0.9-7.8-2C349.8,261.5,349.7,260.7,349.7,260.7z"/>
						<path class="st11" d="M346.3,250c-1.8,0.3-2.8,1.7-2.4,3.9c0.3,2.2,1.5,7.6,1.7,8.3c0.6,0,4.4-0.7,4.4-0.7s-0.8-8.5-1.2-9.4
							C348.3,251.2,347.6,249.8,346.3,250z"/>
						<path class="st5" d="M344.6,253c-0.1-0.9-0.1-1.7,0.2-2.3c-0.8,0.7-1.1,1.8-0.9,3.2c0.3,2.2,1.5,7.6,1.7,8.3
							c0.1,0,0.5,0,0.9-0.1C346.2,260.9,345,255.3,344.6,253z"/>
						<g>
							<g>
								<g>
									<rect x="363.3" y="288.9" class="st12" width="0.5" height="8.3"/>
									<polygon class="st12" points="366.3,296.1 360.4,290.2 360.7,289.9 366.6,295.8 									"/>
									<rect x="359.4" y="292.8" class="st12" width="8.3" height="0.5"/>
									<polygon class="st12" points="360.7,296.1 360.4,295.8 366.3,289.9 366.6,290.2 									"/>
								</g>
								<path class="st13" d="M364.5,293c0,0.5-0.4,1-1,1c-0.5,0-1-0.4-1-1s0.4-1,1-1C364,292,364.5,292.5,364.5,293z"/>
								<path class="st13" d="M363.5,297.6c-2.5,0-4.6-2.1-4.6-4.6c0-2.5,2.1-4.6,4.6-4.6c2.5,0,4.6,2.1,4.6,4.6
									C368.1,295.5,366,297.6,363.5,297.6z M363.5,289.3c-2,0-3.7,1.6-3.7,3.7c0,2,1.6,3.7,3.7,3.7c2,0,3.7-1.6,3.7-3.7
									C367.2,291,365.5,289.3,363.5,289.3z"/>
								<path class="st14" d="M363.5,296.9c-2.2,0-3.9-1.8-3.9-3.9c0-2.2,1.8-3.9,3.9-3.9c2.2,0,3.9,1.8,3.9,3.9
									C367.4,295.2,365.7,296.9,363.5,296.9z M363.5,290c-1.6,0-3,1.3-3,3s1.3,3,3,3c1.6,0,3-1.3,3-3S365.1,290,363.5,290z"/>
							</g>
							<path class="st15" d="M343.1,278c-0.6,0-1.2-0.8-1.3-1.9l-2.6-19.3h2.1l2.9,21.2C344.2,278,343.7,278,343.1,278z"/>
							<rect x="344.2" y="275.3" class="st15" width="19.9" height="2.5"/>
							<polygon class="st13" points="364.1,278.3 344.2,278.3 341.3,257.3 334.4,257.3 334.4,256.3 342.2,256.3 345,277.3 
								364.1,277.3 							"/>
							<path class="st15" d="M359.2,267.4h-13.7c-0.5,0-1-0.4-1-0.8c0-0.5,0.4-0.8,1-0.8h13.7c0.5,0,1,0.4,1,0.8
								C360.1,267,359.7,267.4,359.2,267.4z"/>
							<path class="st13" d="M363.9,293.5l-0.8-0.5l0.6-3.8v-16.1c0-1.3-1.1-2.4-2.4-2.4h-0.8v-1h0.8c1.8,0,3.3,1.5,3.3,3.3v16.4
								L363.9,293.5z"/>
							<path class="st13" d="M344.1,277.9l-1-7.7c-0.1-0.9,0.1-1.7,0.7-2.4c0.6-0.6,1.4-1,2.3-1h11.6c1.8,0,3.3,1.5,3.3,3.3v7.6h-1
								v-7.6c0-1.3-1.1-2.4-2.4-2.4h-11.6c-0.6,0-1.2,0.2-1.6,0.7c-0.4,0.4-0.5,1-0.5,1.6l1,7.7L344.1,277.9z"/>
							<path class="st13" d="M371,289.5l-4.1-8.7c-0.6-1.4-1.4-2.3-1.6-2.3l-0.8,0v-1h0.8c1.1,0,2.3,2.6,2.4,2.9l4.1,8.9L371,289.5z
								"/>
							<path class="st13" d="M367.5,291.6c-0.2,0-0.4-0.1-0.4-0.3c-0.1-0.2,0-0.5,0.3-0.6l8.7-3.3c0.2-0.1,0.5,0,0.6,0.3
								c0.1,0.2,0,0.5-0.3,0.6l-8.7,3.3C367.7,291.6,367.6,291.6,367.5,291.6z"/>
							
								<rect x="363.9" y="283.6" transform="matrix(0.9144 -0.4049 0.4049 0.9144 -83.6599 172.6202)" class="st13" width="4.8" height="1"/>
							<path class="st15" d="M330.9,255.5h5.2c0.5,0,1,0.4,1,0.8v0.6c0,0.5-0.4,0.8-1,0.8h-5.2c-0.5,0-1-0.4-1-0.8v-0.6
								C330,255.9,330.4,255.5,330.9,255.5z"/>
							<g>
								<g>
									<rect x="346.9" y="271" class="st12" width="0.5" height="26.1"/>
									<polygon class="st12" points="353.4,295.5 340.4,272.9 340.8,272.7 353.8,295.3 									"/>
									
										<rect x="346.8" y="271" transform="matrix(0.5 -0.866 0.866 0.5 -72.483 442.6398)" class="st12" width="0.5" height="26.1"/>
									<rect x="334" y="283.9" class="st12" width="26.1" height="0.5"/>
									<polygon class="st12" points="335.9,290.8 335.7,290.4 358.3,277.4 358.5,277.8 									"/>
									<polygon class="st12" points="340.8,295.5 340.4,295.3 353.4,272.7 353.8,272.9 									"/>
								</g>
								<path class="st13" d="M348,284.1c0,0.5-0.4,1-1,1c-0.5,0-1-0.4-1-1c0-0.5,0.4-1,1-1C347.6,283.1,348,283.6,348,284.1z"/>
								<path class="st13" d="M347.1,297.6c-7.5,0-13.5-6.1-13.5-13.5c0-7.5,6.1-13.5,13.5-13.5c7.5,0,13.5,6.1,13.5,13.5
									C360.6,291.6,354.5,297.6,347.1,297.6z M347.1,271.5c-6.9,0-12.6,5.6-12.6,12.6c0,6.9,5.6,12.6,12.6,12.6
									c6.9,0,12.6-5.6,12.6-12.6C359.7,277.2,354,271.5,347.1,271.5z"/>
								<path class="st14" d="M347.1,296.8c-7,0-12.7-5.7-12.7-12.7c0-7,5.7-12.7,12.7-12.7c7,0,12.7,5.7,12.7,12.7
									C359.8,291.1,354.1,296.8,347.1,296.8z M347.1,272.3c-6.5,0-11.8,5.3-11.8,11.8c0,6.5,5.3,11.8,11.8,11.8
									c6.5,0,11.8-5.3,11.8-11.8C358.9,277.6,353.6,272.3,347.1,272.3z"/>
							</g>
						</g>
						<path class="st3" d="M360,265.6c0,0,0.3,1,0.5,1.4c0.2,0.3,1.1,0.8,0.7,0c-0.4-0.8,1,0.3,1,0.3s0.7,2.7,1,2.7
							c0.3,0,0.3-2.8,0.1-3.4c-0.1-0.6-1.3-1.8-2.2-2L360,265.6z"/>
					</g>
					<g>
						<g>
							<path class="st16" d="M387.2,248.3c-0.7,0-1.2,0-1.4,0h0c-0.1,0-0.4,0.2-0.6,0.3c0,0-0.1,0.1-0.1,0.1c-2,1.5-2.9,1.5-4.4,1.1
								c-1.6-0.5-0.8-2-0.2-2c1.2-0.1,2.5-1,2.3-1.1c-0.2,0-1.4,0.2-1.3-0.1c0-0.3,0.9-0.4,1.5-0.7c0.5-0.2,1.3,0.2,1.8,0.5
								c0,0,0.2,0,0.5-0.1c0.4-0.1,0.9-0.2,1.4-0.4l0.5,2.2L387.2,248.3z"/>
							<path class="st17" d="M401.4,234.8c0,0.6-0.1,1.2-0.4,1.8c-0.5,1-2.2,4.3-3.6,6.9c-0.9,1.7-1.8,3-2.2,3.2
								c-2.1,1.2-9.1,2.1-9.2,2.1l-0.2-0.6v0l-0.2-0.6l-0.4-1.5v0l-0.2-0.6c1.6-0.4,6.6-2.3,7.6-3c0.2-0.1,0.9-1.5,1.6-3.2
								c1.1-2.4,2.4-5.4,2.7-5.7l0.3-0.3c0.6-0.6,1.4-1.3,2.4-0.9c0.1,0,0.1,0,0.1,0C400.8,233,401.4,233.8,401.4,234.8z"/>
						</g>
						<path class="st5" d="M401.4,234.8c0,0.6-0.1,1.2-0.4,1.8c-0.5,1-2.2,4.3-3.6,6.9c-0.9,1.7-1.8,3-2.2,3.2
							c-2.1,1.2-9.1,2.1-9.2,2.1l-0.2-0.6h0c-0.1,0-0.4,0.2-0.6,0.3c0,0-0.1,0.1-0.1,0.1c0,0,0,0,0,0c-0.2,0-1.4,0.4-1.4,0.2
							c0-0.3,0.8-0.6,1.4-1c0.1-0.1,0.3-0.1,0.5-0.1c0.4,0,1,0.2,1.4,0.3c0,0,0,0,0.1-0.1c0.1,0,0.2-0.1,0.4-0.2l-0.3-0.6
							c1.5-0.7,6.3-3.4,7.2-4.3c0.4-0.4,2.3-8.1,2.9-9.5c0.6-0.6,1.4-1.3,2.4-0.9c0.1,0,0.1,0,0.1,0
							C400.8,233,401.4,233.8,401.4,234.8z"/>
						<path class="st13" d="M399.8,295.8c0-0.5-0.1-1-0.1-1.4c-0.1-0.4-0.1-0.8-0.2-0.9c-0.1-0.2-0.1-0.3-0.2-0.3
							c-0.1,0-4-0.4-4.1-0.3c-0.3,0.2-1.5,0.9-2.4,1.2c-0.7,0.2-1.1,0.3-1.7,0.2c-0.2,0-0.5,0-0.7-0.1c-0.3-0.1-0.7,0-1,0.2
							c-0.2,0.2-0.3,0.5-0.2,0.8c0,0,0,0.1,0.1,0.1c0.2,0.4,0.7,1.1,1.9,1.6c0.2,0.1,0.7,0.2,0.9,0.2l1.7,0.2c0.3,0,0.7,0,0.9-0.1
							c0.2-0.1,0.4-0.1,0.6-0.2c0.2,0,0.3,0,0.3,0.1c0.1,0.2,0.2,0.3,0.3,0.3c0,0,0,0,0.1,0l2.1,0.2c0.8,0,1.6-0.2,1.8-0.4
							c0.1-0.2,0.1-0.5,0.1-0.8C399.8,296.1,399.8,296,399.8,295.8z"/>
						<path class="st18" d="M393.4,293.4l3.5,0.3l1.6,0.1l1.4,0.1c0,0,0-0.1,0-0.1c0.1-2.5,1.3-21.8,1.2-23.5
							c-0.1-1.8,0.8-7.4,1.9-10.6c0.4-1.3,0.6-2.6,0.6-3.9c0-0.2,0-0.3,0-0.5c0-0.8-0.2-1.6-0.3-2.4c0-0.2-0.1-0.3-0.1-0.5
							c-0.2-0.7-0.4-1.3-0.6-1.8l-5.9,1l-0.9,11.7c0,0,0,0,0,0L393.4,293.4z"/>
						<g>
							<rect x="378.6" y="245" class="st19" width="8.5" height="7.1"/>
							<rect x="378.6" y="245" class="st5" width="8.5" height="0.3"/>
							<rect x="378.1" y="242.5" class="st20" width="9.4" height="2.5"/>
							<rect x="381.9" y="242.5" class="st21" width="1.7" height="9.6"/>
							<rect x="381.9" y="241" class="st22" width="1.7" height="1.5"/>
							<polygon class="st21" points="385.9,242.5 383.7,242.5 383.7,241 385.9,239.4 							"/>
							<polygon class="st21" points="379.7,242.5 381.9,242.5 381.9,241 379.7,239.4 							"/>
						</g>
						<path class="st23" d="M404.2,295.7c-0.1-0.5-0.2-1-0.3-1.4c-0.1-0.4-0.2-0.8-0.3-0.9c-0.1-0.2-0.2-0.3-0.3-0.3
							c-0.1,0-4-0.1-4.1,0c-0.2,0.2-1.5,1.1-2.3,1.4c-0.6,0.3-1.1,0.4-1.7,0.4c-0.2,0-0.5,0-0.7,0c-0.3,0-0.7,0-1,0.3
							c-0.2,0.2-0.2,0.5-0.1,0.8c0,0,0,0.1,0.1,0.1c0.2,0.3,0.8,1,2,1.4c0.2,0.1,0.7,0.1,0.9,0.1h1.7c0.3,0,0.7-0.1,0.9-0.2
							c0.2-0.1,0.4-0.2,0.6-0.2c0.2,0,0.3,0,0.3,0.1c0.1,0.1,0.2,0.3,0.3,0.3c0,0,0,0,0.1,0h2.1c0.8-0.1,1.6-0.3,1.8-0.6
							c0.1-0.2,0.1-0.5,0-0.9C404.3,296,404.3,295.9,404.2,295.7z"/>
						<path class="st5" d="M395.7,263.3C395.7,263.3,395.7,263.3,395.7,263.3c0.5,11.7,1.1,28.7,1.2,30.4c0,0.1,0,0.1,0,0.1h3
							c0.1-2.5,1.3-21.8,1.2-23.5c-0.1-1.8,0.8-7.4,1.9-10.6c0.4-1.3,0.6-2.6,0.6-3.9c0-0.2,0-0.3,0-0.5c0-0.8-0.2-1.6-0.3-2.4
							c0-0.2-0.1-0.3-0.1-0.5c-0.2-0.7-0.4-1.3-0.6-1.8l-5.9,1L395.7,263.3z"/>
						<path class="st17" d="M395.5,250.4c0,0,0.1,0.8,0.2,1.7c0,0.2,0,0.3,0,0.5c0,0.5,0.1,1,0.1,1.3c0,0.3,0,0.7,0.1,1.1
							c0,0.2,0,0.3,0,0.5c0.5,9.5,1.6,38.3,1.6,38.3h6.7c-0.1-1.8-0.6-21.9-0.9-23.6c-0.2-1.8,0.1-7.4,0.9-10.7
							c0.3-1.3,0.4-2.6,0.3-3.9c0-0.2,0-0.3-0.1-0.5c-0.1-0.8-0.3-1.6-0.5-2.4c0-0.2-0.1-0.3-0.2-0.5c-0.2-0.6-0.5-1.2-0.8-1.7
							H395.5z"/>
						<path class="st5" d="M404.2,293.8h-0.8c-0.2-6.1-0.6-21.8-0.8-23.4c-0.2-1.9,0.1-8.1,1-11.6c0.6-2.5,0.3-5.2-0.4-7.4
							c-0.1-0.2-0.1-0.4-0.2-0.5c0-0.2-0.1-0.3-0.2-0.5h0.2c0.3,0.5,0.5,1.1,0.8,1.7c0.1,0.2,0.1,0.3,0.2,0.5c0.6,2,0.9,4.5,0.4,6.8
							c-0.8,3.3-1.2,9-0.9,10.7C403.6,271.9,404.1,292,404.2,293.8z"/>
						<path class="st16" d="M397,229.4c0,0.2,0,0.4,0,0.6c0,1-0.4,2-0.4,2s3.5-0.9,4.4-1.8c-0.2-0.5-0.4-1.3-0.4-2.1
							c-0.1-1.1-0.2-2.2-0.2-2.6c0-0.1,0-0.2,0-0.2s-4.6,1.7-3.8,3.1c0.1,0.1,0.1,0.2,0.1,0.2C396.9,228.9,397,229.2,397,229.4z"/>
						<path class="st24" d="M395.5,255h9.1c0,0-1.6-16.9-1.6-20.9c0-1.8-1.7-4.4-1.9-4.8c-0.9,0.5-4.1,2-4.3,1.9
							c-0.2-0.1-1.6,2.1-2.1,3.2c-0.5,1.1-0.2,5.1,0,6.6C394.9,242.5,395.5,254.1,395.5,255z"/>
						<path class="st5" d="M402.6,233.6c0-0.6-0.1-1.3-0.3-2c0.4,0.8,0.7,1.7,0.7,2.5c0,3.9,1.6,20.9,1.6,20.9h-1.3
							C403.1,250.5,402.5,237.2,402.6,233.6z"/>
						<path class="st5" d="M396.7,228.4c0.1,0.1,0.1,0.2,0.1,0.2c0.1,0.2,0.2,0.5,0.2,0.8c0.8-0.4,2.4-1.4,2.9-1.9
							c0.5-0.5,0.5-1.7,0.5-2.1c0-0.1,0-0.2,0-0.2S395.8,227,396.7,228.4z"/>
						<path class="st16" d="M396,219.1c-0.6,0.5-0.9,1.3-1.1,2c-0.2,0.7-0.4,1.1-0.3,1.3c0.1,0.2,0.1,0.4,0.2,0.5
							c0.1,0.1-0.9,2.3-0.8,2.4c0.1,0.2,0.6,0.2,0.7,0.2c0.2,0.1,0.2,0.3,0.2,0.5c0,0.2-0.3,0.4-0.3,0.5c0,0.1,0.6,0.2,0.6,0.2
							s-0.4,0.2-0.4,0.3c0,0.1,0.2,0.1,0.4,0.2c0.1,0.1-0.3,0.9-0.1,1.1c0.6,0.8,2.6,0.3,3.8-0.5c1.1-0.7,1.8-1.3,2.1-1.5
							c0.5-0.3,2.3-3.6,1.7-5.1c-0.6-1.5-1.7-2.7-3.1-2.9C398.4,218.3,397,218.5,396,219.1z"/>
						<path class="st13" d="M395.2,219.2c0.5-0.3,1.6-1.3,3.3-1.4c1.7-0.2,3.3,0.2,4.3,1.7c0.5,0.6,0.9,2,0.6,3.3
							c-0.3,1.3-1.1,2.4-1.5,3.1c-0.7,1-1.4,1.8-1.3,2c-0.6-0.7-0.5-2.6-0.6-3c0.3-0.2,1.1-1.7,0.4-2.1c-0.7-0.5-1.5,0.4-1.9,1.5
							c-0.3-1.1-0.3-2.4-0.9-3.2c-0.5-0.4-2.1-0.3-2.6-0.6C394.2,220.1,394.7,219.5,395.2,219.2z"/>
						<path class="st13" d="M395.2,219.2c0.5-0.3,1.6-1.3,3.3-1.4c1.7-0.2,3.3,0.2,4.3,1.7c0.5,0.6,0.9,2,0.6,3.3
							c-0.3,1.3-1.1,2.4-1.5,3.1c-0.7,1-1.4,1.8-1.3,2c-0.6-0.7-0.5-2.6-0.6-3c0.3-0.2,1.1-1.7,0.4-2.1c-0.7-0.5-1.5,0.4-1.9,1.5
							c-0.3-1.1-0.3-2.4-0.9-3.2c-0.5-0.4-2.1-0.3-2.6-0.6C394.2,220.1,394.7,219.5,395.2,219.2z"/>
						<path class="st5" d="M395.9,255c0,0.2,0,0.3,0,0.5h8.6c0-0.2,0-0.3-0.1-0.5H395.9z"/>
						<g>
							<path class="st16" d="M383.4,253.1c1.7,0.2,2.5,0.1,4.4-1.9c0.1-0.1,0.4-0.4,0.5-0.4c0.3-0.1,0.8-0.2,1.5-0.3l-1-2.4
								c-1.1,0.5-1.9,0.9-1.9,0.9c-0.6-0.2-1.5-0.5-1.9-0.2c-0.6,0.4-1.4,0.7-1.4,1c0,0.3,1.2-0.2,1.4-0.2c0.2,0-1,1.2-2.2,1.5
								C382.3,251.2,381.7,252.9,383.4,253.1z"/>
							<path class="st17" d="M387.3,248.2c1.5-0.7,6.3-3.4,7.2-4.3c0.5-0.4,2.5-9,3-9.7c0.5-0.8,1.4-2,2.6-1.7c1.7,0.5,2.4,2,1.8,4
								c-0.5,1.8-3.3,10.5-4.2,11.2c-2,1.5-8.8,3.6-9,3.7L387.3,248.2z"/>
						</g>
						<polygon class="st17" points="401,228.8 401.8,230.2 396.3,232.6 396.8,231.2 						"/>
						<g>
							<path class="st17" d="M394.8,219.5c0,0-2.9,0.5-3.3,0.6c1.1,2.4,3.9,2.1,6.5,1.3C397.1,220.9,395.1,219.9,394.8,219.5z"/>
							<path class="st5" d="M394.8,219.5c0,0-2.9,0.5-3.3,0.6c0,0.1,0.1,0.2,0.2,0.3C392.4,220.1,394,219.7,394.8,219.5z"/>
							<path class="st24" d="M394.8,219.5c1.3-2.7,4.9-2.9,6.4-2.2c2.3,1,3.5,4.1,2.2,6.2C401.9,223.1,395.5,220.6,394.8,219.5z"/>
							<path class="st5" d="M401.2,217.2c-1.2-0.5-3.5-0.5-5.1,0.7c1.6-1,3.7-1,4.8-0.5c2.3,1,3.5,3.9,2.4,6c0,0,0.1,0,0.1,0
								C404.7,221.4,403.6,218.3,401.2,217.2z"/>
						</g>
					</g>
				</g>
				<g>
					<g>
						<g>
							<g>
								<path class="st8" d="M204.9,200.9c0,0-0.3,4.1-0.6,10.1c-0.1,0.8-0.1,1.5-0.1,2.3c-0.4,6.3-0.8,14.2-1,21.6
									c-0.3,11-0.5,20.9-0.4,22.6c0,0.5,0.1,1.3,0.1,2.4c0.1,1.9,0.1,4.6,0.1,7.5c0,3.6,0,7.7,0,11.2c0,1.2,0,2.3,0,3.3v0.2
									c0,0.5,0,1,0,1.4c0,0.9,0,1.6,0.1,2.3c0.3,5.8-0.4,28.6-0.4,28.6h-12.9l-2.4-54.3l-1.6-37h-1.2v-22.3H204.9z"/>
								<path class="st5" d="M204.9,200.9c0,0-0.3,4.1-0.6,10.1c-0.1,0.8-0.1,1.5-0.1,2.3c-0.4,6.3-0.8,14.2-1,21.6
									c-0.3,11-0.5,20.9-0.4,22.6c0,0.5,0.1,1.3,0.1,2.4c0.1,1.9,0.1,4.6,0.1,7.5c0,3.6,0,7.7,0,11.2c0,1.2,0,2.3,0,3.3v0.2
									c0,0.5,0,1,0,1.4c0,0.9,0,1.6,0.1,2.3c0.3,5.8-0.4,28.6-0.4,28.6h-6.2c-0.2-12.1-0.6-39.1-0.5-43.6c1.4-0.5,2.9-6.6,3.6-9.2
									c2.8-10.7,2.9-33.5,1.6-48.3c-0.1-0.8-0.2-1.6-0.2-2.3c-0.5-4.6-1.2-8.2-2-10.1H204.9z"/>
							</g>
							<path class="st8" d="M184.6,200.9v22.3h-1.2l-1.4,32.4l-0.1,1.6l-0.1,3l-0.1,1.5l-0.9,20.7l-0.1,0.9l-1.3,31.2h-12.9
								c0,0-0.7-22.9-0.5-28.6c0-0.7,0.1-1.6,0.1-2.6c0-0.3,0-0.6,0-0.9c0.1-6.4,0-17.1,0.1-22.4c0-1.1,0-1.9,0.1-2.4
								c0-0.1,0-0.2,0-0.4c0-0.4,0-0.9,0-1.6c0-3.8-0.2-11.8-0.5-20.6c-0.1-4.4-0.4-12.3-1-21.6c0-0.8-0.1-1.6-0.1-2.3
								c-0.3-6-0.6-10.1-0.6-10.1H184.6z"/>
							<path class="st5" d="M181.7,261.7l-2.3,52.9h-4.1c-0.2-12.1-0.6-39.1-0.6-43.7C176.3,270.4,179.2,266.8,181.7,261.7z"/>
						</g>
						<g>
							<g>
								<g>
									<g>
										<polygon class="st3" points="171.2,143 185.4,154.2 199.1,143.4 193.3,131.5 193,130.5 192.9,130.1 192.7,128.1 
											177.9,128.1 177.7,130.1 177.6,130.5 177.3,131.5 										"/>
									</g>
								</g>
								<path class="st5" d="M177.6,130.5c0.1,0.2,0.3,0.3,0.4,0.4l1.2,1.1c1.4,1.3,4.1,2.3,6,2.3h0.3c1.9,0,4.6-1,6-2.3l1.2-1.1
									c0.1-0.1,0.3-0.3,0.4-0.4l-0.1-0.4l-0.1-2h-14.9l-0.1,2L177.6,130.5z"/>
								<path class="st25" d="M196.1,103.6v18.8c0,2.1-1.2,4.9-2.8,6.3l-1.3,1.1c-1.5,1.4-4.5,2.5-6.5,2.5h-0.4
									c-2.1,0-5-1.1-6.5-2.5l-1.3-1.1c-1.5-1.4-2.8-4.2-2.8-6.3v-18.8h10.8H196.1z"/>
							</g>
							<g>
								<g>
									<g>
										<path class="st26" d="M196.3,101.3v2.9c-0.4,1.2-1.1,2.2-2,1.7c0,0,0,0-0.1,0c-1.8-1.2-5.4-1.9-9-1.9
											c-3.5,0-7,0.5-9.1,1.8c0,0,0,0-0.1,0c-0.6,0.4-1.4-0.2-1.9-1.2c0,0,0,0,0,0v-3.5c0.1-0.1,0.1-0.2,0.2-0.3
											c3.5-4.9,18.4-4.4,21.6,0.1c0.1,0.1,0.2,0.2,0.2,0.3C196.3,101.2,196.3,101.3,196.3,101.3z"/>
									</g>
								</g>
								<g>
									<g>
										<path class="st27" d="M196.3,101.3v11.2l-1,2v-6.3l-1,1.8v-6.8l1.7-2.3c0.1,0.1,0.2,0.2,0.2,0.3
											C196.3,101.2,196.3,101.3,196.3,101.3z"/>
									</g>
								</g>
								<g>
									<g>
										<polygon class="st27" points="174.3,101.1 174.3,104.6 174.3,112.5 174.3,112.6 175.3,114.5 175.3,108.2 176.2,110 
											176.2,105.8 176.2,103.6 176.2,103.2 174.5,100.8 										"/>
									</g>
								</g>
							</g>
						</g>
						<g>
							<g>
								<g>
									<path class="st12" d="M200.9,310.1c0,3-2.2,7.5-4.9,7.5c-2.7,0-4.9-4.5-4.9-7.5c0-3,2.2-3.5,4.9-3.5
										C198.7,306.6,200.9,307.1,200.9,310.1z"/>
								</g>
							</g>
							<g>
								<g>
									<path class="st13" d="M197,316.9c0,0-0.3-2.9,1.4-4.9c1.7-2,4.3-1,5.5,0c1.2,1-0.6,6.5-0.6,6.5L197,316.9z"/>
								</g>
							</g>
							<g>
								<g>
									<path class="st13" d="M195.4,316.9c0,0,0.2-2.9-1.4-4.9c-1.7-2-4.3-1-5.5,0c-1.2,1,0.6,6.5,0.6,6.5L195.4,316.9z"/>
								</g>
							</g>
							<g>
								<g>
									<path class="st14" d="M204,320.2c0,2.4-3.6,2.5-8,2.5c-4.4,0-7.9-0.1-7.9-2.5c0-2.4,3.5-4.3,7.9-4.3
										C200.4,315.9,204,317.9,204,320.2z"/>
								</g>
							</g>
							<g>
								<g>
									<rect x="188.1" y="320.8" class="st13" width="15.9" height="1.9"/>
								</g>
							</g>
							<g>
								<g>
									<path class="st28" d="M199.9,313.4H193c-0.2,0-0.4-0.2-0.4-0.4c0-0.2,0.2-0.4,0.4-0.4h6.9c0.2,0,0.4,0.2,0.4,0.4
										C200.2,313.3,200.1,313.4,199.9,313.4z"/>
								</g>
							</g>
							<g>
								<g>
									<path class="st28" d="M199,315.1h-5.4c-0.2,0-0.4-0.2-0.4-0.4c0-0.2,0.2-0.4,0.4-0.4h5.4c0.2,0,0.4,0.2,0.4,0.4
										C199.4,314.9,199.2,315.1,199,315.1z"/>
								</g>
							</g>
						</g>
						<g>
							<g>
								<g>
									<path class="st12" d="M168.1,310.1c0,3,2.2,7.5,4.9,7.5c2.7,0,4.9-4.5,4.9-7.5c0-3-2.2-3.5-4.9-3.5
										C170.3,306.6,168.1,307.1,168.1,310.1z"/>
								</g>
							</g>
							<g>
								<g>
									<path class="st13" d="M172,316.9c0,0,0.3-2.9-1.4-4.9c-1.7-2-4.3-1-5.5,0c-1.2,1,0.6,6.5,0.6,6.5L172,316.9z"/>
								</g>
							</g>
							<g>
								<g>
									<path class="st13" d="M173.7,316.9c0,0-0.2-2.9,1.4-4.9c1.7-2,4.3-1,5.5,0c1.2,1-0.6,6.5-0.6,6.5L173.7,316.9z"/>
								</g>
							</g>
							<g>
								<g>
									<path class="st14" d="M165.1,320.2c0,2.4,3.6,2.5,7.9,2.5c4.4,0,7.9-0.1,7.9-2.5c0-2.4-3.5-4.3-7.9-4.3
										C168.7,315.9,165.1,317.9,165.1,320.2z"/>
								</g>
							</g>
							<g>
								<g>
									<rect x="165.1" y="320.8" class="st13" width="15.9" height="1.9"/>
								</g>
							</g>
							<g>
								<g>
									<path class="st28" d="M169.2,313.4h6.9c0.2,0,0.4-0.2,0.4-0.4c0-0.2-0.2-0.4-0.4-0.4h-6.9c-0.2,0-0.4,0.2-0.4,0.4
										C168.8,313.3,169,313.4,169.2,313.4z"/>
								</g>
							</g>
							<g>
								<g>
									<path class="st28" d="M170,315.1h5.4c0.2,0,0.4-0.2,0.4-0.4c0-0.2-0.2-0.4-0.4-0.4H170c-0.2,0-0.4,0.2-0.4,0.4
										C169.7,314.9,169.8,315.1,170,315.1z"/>
								</g>
							</g>
						</g>
						<path class="st17" d="M206.9,158.4c-0.6,6.6-0.2,52.6-0.2,52.6h-42.8c0,0,1.2-43.9,0.5-50.5c5.6-4.4-5-21.3-5-21.3l8.5-2.2
							l1.4-0.4l6.1-1.6c0.4,10.1,6.2,10.5,9.8,10.5h0.2c5.3,0,9.2-0.3,9.6-10.5l5.8,1.7l1.4,0.4l7.4,2.1
							C209.6,139.3,201.2,154,206.9,158.4z"/>
						<path class="st5" d="M205.7,156.9c-0.7,9-3.3,45.2-4,54.1h4.9c0,0-0.5-46,0.2-52.6C206.4,158,206,157.5,205.7,156.9z"/>
						<path class="st17" d="M164.8,160.7l8.1-3.8l-6.3-17.3c0,0-7.1-2-10.1,1.7c-2.9,3.8-13.2,40.2-13.2,40.2l15.7-4.7
							C161,172.2,164.8,160.7,164.8,160.7z"/>
						<path class="st26" d="M160.4,219c0.5-0.6,1.1-1.3,1.6-1.8c0.5-0.5,1-0.9,1.2-1.1c0.3-0.2,0.5-0.3,0.7-0.2c0.2,0,5.9,3.3,6,3.6
							c0.2,0.6,1.2,2.8,2.2,4c0.7,0.9,1.3,1.5,2.1,2c0.3,0.2,0.7,0.4,1.1,0.6c0.5,0.2,1,0.7,1.2,1.2c0.1,0.4-0.1,0.9-0.5,1.3
							c-0.1,0-0.1,0.1-0.2,0.1c-0.6,0.3-2,0.8-4.2,0.3c-0.4-0.1-1.1-0.4-1.5-0.6l-2.5-1.5c-0.4-0.2-0.9-0.7-1.2-1
							c-0.2-0.3-0.4-0.6-0.6-0.8c-0.2-0.2-0.4-0.2-0.5-0.2c-0.3,0.1-0.6,0.2-0.7,0.2c0,0-0.1,0-0.1,0l-3.1-1.8
							c-1.1-0.9-2-1.8-2.1-2.4c0.1-0.3,0.3-0.8,0.7-1.3C160,219.5,160.2,219.2,160.4,219z"/>
						<path class="st29" d="M153.9,221.4c0.5-0.6,1.1-1.3,1.6-1.8c0.5-0.5,0.9-0.9,1.2-1.1c0.3-0.2,0.5-0.3,0.7-0.2
							c0.2,0,5.9,3.3,6,3.6c0.1,0.6,1.2,2.8,2.2,4c0.7,0.9,1.3,1.5,2.1,2c0.3,0.2,0.7,0.4,1.1,0.6c0.5,0.2,1,0.7,1.2,1.2
							c0.1,0.4-0.1,0.9-0.5,1.3c-0.1,0-0.1,0.1-0.2,0.1c-0.6,0.3-2,0.8-4.2,0.3c-0.4-0.1-1.1-0.4-1.5-0.6l-2.5-1.5
							c-0.4-0.2-0.9-0.7-1.2-1c-0.2-0.3-0.4-0.6-0.6-0.8c-0.2-0.2-0.4-0.2-0.5-0.2c-0.3,0.1-0.6,0.2-0.7,0.2c0,0-0.1,0-0.1,0
							l-3.1-1.8c-1.1-0.9-2-1.8-2.1-2.4c0.1-0.3,0.3-0.8,0.7-1.3C153.6,221.9,153.7,221.6,153.9,221.4z"/>
						<path class="st5" d="M204.2,211c-0.1,0.8-0.1,1.5-0.1,2.3H165c0-0.8-0.1-1.6-0.1-2.3H204.2z"/>
						<path class="st17" d="M198.1,145.4c0,0,2-7,5.9-7.3c3.9-0.3,53.5,14.9,53.5,14.9l-1.4,11.7c0,0-21.8-4.4-26.4-5.5
							c-3.9-0.9-25,0.2-25,0.2L198.1,145.4z"/>
						<g>
							<g>
								<polygon class="st30" points="202.2,137.2 186.5,164.6 185.7,166 185.1,165.6 184.5,165.3 184.9,164.6 185.1,164.2 
									200.8,136.8 								"/>
								<polygon class="st30" points="185.7,165.3 185.1,165.6 184.5,166 183.7,164.6 168,137.1 169.3,136.7 185.1,164.2 
									185.3,164.6 								"/>
							</g>
							<rect x="179.3" y="164.6" class="st31" width="11.7" height="8.1"/>
						</g>
						<path class="st27" d="M164.4,167.2c-1.3,1.8,9.6,17.7,10.4,20.5c-3,6.1-11.3,28.7-11.3,28.7l7.3,4.5c0,0,14-29.4,13.9-32.8
							c-0.1-3.4-6.1-17.8-7.2-22.9C175.3,167.9,164.4,167.2,164.4,167.2z"/>
						<path class="st32" d="M157.8,167.3c-1.7,11.5,9.5,19.3,10.3,22.1c-3,6.1-12,28.7-12,28.7l8,4.4c0,0,14-29.4,13.9-32.8
							c-0.1-3.4-5.6-16.5-0.5-24.6C174.8,165.5,157.8,167.3,157.8,167.3z"/>
						<path class="st4" d="M180.7,188.2c0,0,3.4-0.6,4.7-0.4c1.3,0.2,3.9,2.2,1,2.2c-2.9,0,2.2,2.6,2.2,2.6s7.2-1.7,7.7-0.9
							c0.5,0.7-6.3,4.8-8.1,5.2c-1.8,0.4-9-3.9-9-3.9L180.7,188.2z"/>
						<path class="st5" d="M203.9,138.1c-0.2,0-0.4,0.1-0.7,0.2c9,2.7,25.1,8.9,25.1,8.9c7.3,2.5,22.9,6.2,28.9,7.6l0.2-1.8
							C257.5,153.1,207.8,137.9,203.9,138.1z"/>
						<g>
							<g>
								<path class="st3" d="M169,113.8c1-1.3,1.2-2.8,2.4-1.4c1,1.1-0.2,5-1.5,5.8c-0.7,0.5-0.6-1.7-0.6-1.7L169,113.8z"/>
								<path class="st3" d="M155.6,115.1c-1.3-1-1.7-2.4-2.6-0.9c-0.7,1.3,1.3,4.9,2.6,5.4c0.8,0.3,0.3-1.8,0.3-1.8L155.6,115.1z"
									/>
							</g>
							<path class="st3" d="M169.9,132l-11.3,1.2c0.4-2.4,0.9-4.8,0.9-7.2c0-0.8,0-1.7-0.1-2.5l7.7-0.8c0.1,0.8,0.3,1.7,0.4,2.5
								C167.9,127.5,169.1,129.7,169.9,132z"/>
							<path class="st33" d="M167.5,125.1c-1,1.1-2.4,1.9-3.9,2c-1.5,0.1-2.9-0.3-4.2-1.2c0-0.8,0-1.7-0.1-2.5l7.7-0.8
								C167.2,123.5,167.3,124.3,167.5,125.1z"/>
							<path class="st4" d="M170.1,113.9c0.7,6.6-2.3,11.7-6.6,12.2c-4.3,0.4-8.3-4-8.9-10.6c-0.7-6.6,2.5-9.6,6.8-10
								C165.7,105,169.4,107.3,170.1,113.9z"/>
							<path class="st6" d="M161.2,103.4c3.3-0.3,8.9,0.6,9.7,8.7c-1.5-0.2-1.1,4.9-1.1,4.9s-1.5-5.2-4.2-7.3
								c-0.7,1.2-3.3,2-5.4,2.8c-2.1,0.8-5.4,3-5.4,5c-1-0.6-1.5-4.3-1.3-7.1C153.8,107.7,156.3,103.9,161.2,103.4z"/>
						</g>
						<path class="st17" d="M158.9,177C158.9,176.9,159,176.9,158.9,177l-15.6,4.6c0,5.9,37,15,37,15l3.4-11.4
							C183.6,185.2,163.6,178.2,158.9,177z"/>
						<path class="st5" d="M156.6,177.6c6.2,1.7,25.1,7.7,26.9,8.2l0.2-0.6c0,0-20.1-7-24.7-8.3c0,0,0-0.1,0-0.1L156.6,177.6z"/>
						<path class="st4" d="M153.3,147.2c0,0,1,23.5,1.6,25.2c0.7,1.7,3.5,3,4,4.9c0.5,1.8-1.1,0.6-1.8,0.2c-0.8-0.5-0.8,1,0.3,2.5
							c1,1.5,2.6,2.2,1.5,2.8c-1.2,0.6-3.6-0.2-4.5-1.2c-1.8-2-2.7-6-2.8-7.4c-0.2-1.5-5.4-23.1-3.9-30.5L153.3,147.2z"/>
						<path class="st34" d="M175.9,142.8l0.3,3.6l1.4,18.8l-19.8,2l-2.9-22.3l-0.7,3.2l-0.5-0.1l-0.9-0.3l-5.4-1.5l-0.3-0.1
							l-0.5-0.1c0,0,0.1-7.7,2.4-12c1-2,8.4-4.3,10.1-4.5c0,0,0,0,0.1,0c0,0,0,0.1,0,0.1c0.5,0.5,2.5,2.7,5,2.4
							c2.8-0.3,4.2-3.1,4.4-3.5h0l0,0c1.8-0.2,6.5,1.1,8.7,2.7c-0.2,1.2-1.4,3.7-1.7,6.1C175.3,140.2,175.9,142.8,175.9,142.8z"/>
						<polygon class="st5" points="154.3,145.1 153.7,148.1 154.2,148.3 154.9,145 						"/>
						<polygon class="st5" points="175.9,142.9 174.9,165.5 177.6,165.2 176.2,146.5 						"/>
						<path class="st35" d="M149.5,134.2c0.9-1.8,7.1-3.9,9.6-4.4c0,0,0-0.1,0-0.1c-1.7,0.2-9.1,2.5-10.1,4.5
							c-2.3,4.3-2.4,12-2.4,12l0.5,0.1C147.1,145.7,147.3,138.4,149.5,134.2z"/>
					</g>
					<g>
						<g>
							<g>
								<path class="st32" d="M257.6,201c0,0-0.3,4.2-0.7,10.4c-0.1,0.8-0.1,1.6-0.1,2.4c-0.1,1-0.1,2-0.2,3.1c-0.1,1-0.1,2-0.2,3
									c-0.3,5.1-0.5,10.8-0.7,16.2c-0.1,0.7-0.1,1.4-0.1,2.1c0,0.7-0.1,1.3-0.1,2c-0.1,0.7-0.1,1.3-0.1,2c0,1.7-0.1,3.4-0.1,4.9
									v0.4c0,1-0.1,1.9-0.1,2.8c-0.1,4.6-0.1,8-0.1,9c0,0.5,0.1,1.4,0.1,2.5c0.1,2,0.1,4.7,0.1,7.7c0,3.7,0,7.9,0,11.5
									c0.1,1.3,0.1,2.4,0.1,3.4v0.3c0,0.5,0,1,0,1.5c0,0.9,0,1.7,0.1,2.3c0.3,5.9-0.5,29.4-0.5,29.4h-13.3l-2.4-55.9l-1.3-23.8
									l-0.4-6.5h-1.2V201H257.6z"/>
								<path class="st5" d="M257.6,201c0,0-0.3,4.2-0.7,10.4c-0.1,0.8-0.1,1.6-0.1,2.4c-0.1,1-0.1,2-0.2,3.1c-0.1,1-0.1,2-0.2,3
									c-0.3,5.1-0.5,10.8-0.7,16.2c-0.1,0.7-0.1,1.4-0.1,2.1c0,0.7-0.1,1.3-0.1,2c-0.1,0.7-0.1,1.3-0.1,2c0,1.7-0.1,3.4-0.1,4.9
									v0.4c0,1,0,1.9-0.1,2.8c-0.1,4.6-0.1,8-0.1,9c0,0.5,0.1,1.4,0.1,2.5c0.1,2,0.1,4.7,0.1,7.7c0,3.7,0,7.9,0,11.5
									c0.1,1.3,0.1,2.4,0.1,3.4v0.3c0,0.5,0,1,0,1.5c0,0.9,0,1.7,0.1,2.3c0.3,5.9-0.5,29.4-0.5,29.4h-6.3
									c-0.2-12.4-0.6-40.2-0.5-44.9c1.4-0.5,3-6.8,3.8-9.5c1.3-5.1,2.1-13,2.3-21.4c0.1-1.3,0.1-2.6,0.1-4
									c0.1-6.2,0-12.6-0.3-18.3c-0.1-1-0.1-2-0.2-3c-0.1-1.1-0.2-2.1-0.2-3.1c-0.1-0.8-0.2-1.7-0.2-2.4c-0.5-4.7-1.2-8.4-2-10.4
									H257.6z"/>
							</g>
							<g>
								<path class="st32" d="M236.8,201v30.6h-1.2l-0.4,6.6l-0.2,4l-0.9,15.1l-0.1,1.6l-0.1,3.1l-0.1,1.5l-2.3,54.4h-13.3
									c0,0-0.8-23.5-0.5-29.4c0-0.7,0.1-1.6,0.1-2.7c0.1-0.3,0.1-0.6,0.1-1c0.1-6.6,0-17.6,0.1-23c0-1.1,0-1.9,0.1-2.5
									c0-0.1,0-0.2,0-0.4c0-0.4,0-1,0-1.6c0-3-0.1-8.6-0.3-15.1c0-1.2-0.1-2.6-0.1-4c0-0.7,0-1.4-0.1-2.2
									c-0.2-5.4-0.4-11-0.7-16.1c-0.1-1-0.1-2-0.2-3c0-1.1-0.1-2.1-0.2-3.1c0-0.9-0.1-1.7-0.1-2.4c-0.4-6.2-0.7-10.4-0.7-10.4
									H236.8z"/>
								<path class="st5" d="M233.8,263.5l-2.3,54.4h-4.3c-0.2-12.4-0.7-40.2-0.6-44.9C228.2,272.5,231.2,268.8,233.8,263.5z"/>
							</g>
						</g>
						<path class="st5" d="M256.6,216.9c-0.1,1-0.1,2-0.2,3h-39.6c-0.1-1-0.1-2-0.2-3H256.6z"/>
						<g>
							<g>
								<g>
									<g>
										<path class="st14" d="M256.7,320.1c0,2.4-3.7,2.5-8.2,2.5c-4.5,0-8.2-0.1-8.2-2.5c0-2.4,3.7-4.4,8.2-4.4
											C253,315.7,256.7,317.7,256.7,320.1z"/>
									</g>
								</g>
								<g>
									<g>
										<rect x="240.3" y="320.7" class="st13" width="16.3" height="2"/>
									</g>
								</g>
							</g>
							<g>
								<g>
									<g>
										<path class="st14" d="M216.7,320.1c0,2.4,3.6,2.5,8.2,2.5c4.5,0,8.2-0.1,8.2-2.5c0-2.4-3.7-4.4-8.2-4.4
											C220.3,315.7,216.7,317.7,216.7,320.1z"/>
									</g>
								</g>
								<g>
									<g>
										<rect x="216.7" y="320.7" class="st13" width="16.3" height="2"/>
									</g>
								</g>
							</g>
						</g>
						<path class="st7" d="M258,152.4L258,152.4c-0.6,5.2-1.8,11.7-1.8,11.7s-0.4,5.5-0.6,13.3c-0.1,4.1-0.2,8.7-0.2,13.5
							c0,7.7,0.2,15.8,1,22.2c0.2,1.4,0.4,2.7,0.6,4h-40.7c3.6-15.9,0.8-52.9,0.8-52.9s-3-16.3-1.6-18c0.9-1.1,6.1-0.8,9.5-2.3h0
							c1.8-0.7,3.1,1.3,3.1,1.3l3.1,0.3l5.5,0.4l5.5-0.4l3.1-0.3c0,0,1.2-1.9,2.9-1.3c0.1,0,0.1,0,0.2,0.1h0c3.1,1.3,7.6,1.2,9.1,2
							c0.2,0.1,0.3,0.2,0.4,0.3C258.4,146.7,258.3,149.3,258,152.4z"/>
						<path class="st5" d="M256.2,164.1c0,0-6,34.5-3.1,52.9h3.8C254,200.5,256.2,164.1,256.2,164.1z"/>
						<g>
							<path class="st4" d="M253.9,222.5c-0.6-0.1-3.3-5-3.1-6.5c0.2-1.4,1.7-2.7,2.3-3.2c0.6-0.5,0.6-0.6,0.7-1.7
								c1.1-0.2,5.6-0.5,5.6-0.5s-0.2,1.3,0,1.8c0.8,2.2,2.5,4.2,2.5,6.5c0,1.2-5.4,4.8-6.5,2.4c-0.6-1.2,3-6.1-0.4-5.8
								c-3,0.3-1.3,3.8-0.8,5C254.6,221.9,255.1,222.7,253.9,222.5z"/>
							<path class="st4" d="M219.3,222.5c0.6-0.1,3.3-5,3.1-6.5c-0.2-1.4-1.6-2.7-2.3-3.2c-0.6-0.5-0.6-0.6-0.7-1.7
								c-1.1-0.2-5.6-0.5-5.6-0.5s0.2,1.3,0,1.8c-0.8,2.2-2.5,4.2-2.5,6.5c0,1.2,5.4,4.8,6.5,2.4c0.6-1.2-3-6.1,0.4-5.8
								c3,0.3,1.3,3.8,0.8,5C218.6,221.9,218.1,222.7,219.3,222.5z"/>
							<g>
								<path class="st9" d="M217.7,238.6h17.4l-0.2,3.9h-17.1C217.7,241.3,217.7,240,217.7,238.6z"/>
								<path class="st9" d="M255.6,238.6c0,0.7-0.1,1.3-0.1,2c0,0.6,0,1.3-0.1,1.9h-17.1l-0.2-3.9H255.6z"/>
								<rect x="214.7" y="237.3" class="st14" width="43.3" height="3.9"/>
								<rect x="217.2" y="221.2" class="st9" width="39.4" height="2.6"/>
								<rect x="217.2" y="220.2" class="st14" width="39.4" height="2.6"/>
								<g>
									<g>
										<g>
											<path class="st36" d="M204.7,321.4l11.2-103.7c0.2-1.9,1.3-3.4,2.4-3.3c1.1,0.1,1.9,1.8,1.7,3.7l-11.2,103.7L204.7,321.4
												z"/>
											<path class="st37" d="M206.8,318.7L218,215c0-0.2,0.1-0.3,0.1-0.5c-0.8,0.3-1.6,1.6-1.7,3.2l-11.2,103.7l3.6,0.4l0.3-2.9
												L206.8,318.7z"/>
											
												<rect x="208.5" y="237.9" transform="matrix(0.1067 -0.9943 0.9943 0.1067 -46.7389 429.207)" class="st14" width="13.9" height="5.4"/>
											<polygon class="st13" points="217.2,249.6 211.9,249 212.2,245.5 217.6,246.1 											"/>
											<polygon class="st13" points="218.7,235.7 213.4,235.2 213.7,231.6 219.1,232.2 											"/>
										</g>
										<polygon class="st13" points="204.3,316.6 209.7,316.6 211.6,322.7 202.4,322.7 										"/>
									</g>
									<g>
										<g>
											<path class="st36" d="M268.5,321.4l-11.2-103.7c-0.2-1.9-1.3-3.4-2.4-3.3c-1.1,0.1-1.9,1.8-1.7,3.7l11.2,103.7
												L268.5,321.4z"/>
											<path class="st37" d="M266.4,318.7L255.2,215c0-0.2-0.1-0.3-0.1-0.5c0.8,0.3,1.6,1.6,1.7,3.2l11.2,103.7l-3.7,0.4
												l-0.3-2.9L266.4,318.7z"/>
											
												<rect x="255" y="233.7" transform="matrix(0.9943 -0.1066 0.1066 0.9943 -24.1799 28.8411)" class="st14" width="5.4" height="13.9"/>
											<polygon class="st13" points="256,249.6 261.3,249 261,245.5 255.6,246.1 											"/>
											<polygon class="st13" points="254.5,235.7 259.8,235.2 259.5,231.6 254.1,232.2 											"/>
										</g>
										<polygon class="st13" points="268.9,316.6 263.5,316.6 261.6,322.7 270.8,322.7 										"/>
									</g>
								</g>
							</g>
						</g>
						<path class="st7" d="M268.4,180.5c0,5.6-5.9,33.4-5.9,33.4l-6.1-0.9l-5-0.8c0,0,2.5-12.9,4.1-21.4c0.6-3,1-5.5,1.2-6.7
							c0.3-1.5-0.3-4.1-1-6.8c-1.6-5.6-4.3-11.9-4.3-11.9l1-10.8l0.8-9.1c0,0,2.1-0.2,4.3,0.2c0.6,0.1,1.4,0.3,2,0.6
							c1.1,0.5,2.1,1.3,2.8,2.4C264.3,152.7,268.4,180.5,268.4,180.5z"/>
						<path class="st5" d="M262.2,148.8c-0.1-0.2-0.3-0.4-0.5-0.6c2.1,10.5,4.6,29.9,4.6,29.9c0,5.3-4.3,28.6-5.6,35.6l1.7,0.3
							c0,0,6-27.8,6-33.4C268.4,180.5,264.3,152.7,262.2,148.8z"/>
						<path class="st7" d="M220.3,145.5c0,0-7-0.7-9.1,3.2c-2.1,4-6.2,31.8-6.2,31.8c0,5.6,6,33.4,6,33.4l11.1-1.6
							c0,0-4.5-23.6-5.3-28.1c-0.8-4.5,5.3-18.8,5.3-18.8L220.3,145.5z"/>
						<path class="st5" d="M219.1,170c-1.8,5.9-4.8,11.6-4.3,14.5c0.7,4,3.9,22.2,5,28l2.3-0.3c0,0-4.5-23.6-5.3-28.1
							c-0.4-2.6,1.3-8.3,3-12.8C220.9,168,220.3,166.1,219.1,170z"/>
						<path class="st3" d="M246.4,145.8c-2.9,2.6-9.8,10.1-9.8,10.1s-7-7.4-9.8-10.1c2.8-1.3,3.6-3.4,3.8-5.3
							c0.1-0.4,0.1-0.9,0.1-1.3c0-0.8,0-1.4,0.1-1.9c0.3-1.7,5.9,0,5.9,0s5.6-1.7,5.9,0c0.1,0.5,0.1,1.1,0.1,1.9
							c0,0.4,0,0.9,0.1,1.3C242.8,142.4,243.6,144.5,246.4,145.8z"/>
						<path class="st38" d="M248.3,143.8l-11.7,20.3l-1.5-2.6l-0.5-0.9l-9.7-16.7c1.8-0.7,3.1-1.2,3.1-1.2l3.1,0.3
							c1,1,2.4,2,3.5,2.7c0.2,0.1,0.4,0.2,0.5,0.4c0.9,0.5,1.5,0.8,1.5,0.8s3.5-1.8,5.6-3.9l3-0.3
							C245.2,142.5,246.5,143.1,248.3,143.8z"/>
						<path class="st32" d="M235.1,145.8v15.6l-0.5-0.9v-15C234.7,145.6,234.9,145.7,235.1,145.8z"/>
						<path class="st9" d="M242.6,142.3c-2,1.3-4.7,2.8-6,2.8c-1.3,0-4-1.5-6-2.8c0.1-0.4,0.1-0.9,0.1-1.3c2,1.3,4.7,2.7,6,2.7
							c1.3,0,3.9-1.4,5.9-2.7C242.5,141.4,242.6,141.9,242.6,142.3z"/>
						<path class="st36" d="M239.4,144.9l3.8,5.4c0,0,2.6-7.4,2.8-8.2c0,0-2.3-2.8-3.3-4.6C242.7,140.3,242.4,142.5,239.4,144.9z"/>
						<path class="st36" d="M233.8,144.9l-3.8,5.4c0,0-2.6-7.4-2.8-8.2c0,0,2.3-2.8,3.3-4.6C230.5,140.3,230.8,142.5,233.8,144.9z"
							/>
						<path class="st3" d="M246.4,126.8c1.7-1.7,2.1-3.8,3.7-1.7c1.3,1.7-1.1,7.2-3,8.2c-1.1,0.6-0.7-2.6-0.7-2.6V126.8z"/>
						<path class="st3" d="M226.8,126.8c-1.7-1.7-2.1-3.8-3.6-1.7c-1.3,1.7,1.1,7.2,3,8.2c1.2,0.6,0.7-2.6,0.7-2.6V126.8z"/>
						<path class="st4" d="M247.7,116.3c-2.1-5.2-6.3-6.5-11.1-6.5c-4.8,0-9,1.3-11.1,6.5c-2.2,5.7,1.9,22,2.4,22.6
							c0.5,0.6,6.5,4.8,8.7,4.8c2.2,0,8.2-4.1,8.7-4.8C245.8,138.3,249.9,122,247.7,116.3z"/>
						<path class="st32" d="M237.3,149.3c0,0.4-0.3,0.7-0.7,0.7c-0.4,0-0.7-0.3-0.7-0.7c0-0.4,0.3-0.7,0.7-0.7
							C237,148.6,237.3,148.9,237.3,149.3z"/>
						<path class="st32" d="M237.3,154.4c0,0.4-0.3,0.7-0.7,0.7c-0.4,0-0.7-0.3-0.7-0.7c0-0.4,0.3-0.7,0.7-0.7
							C237,153.7,237.3,154,237.3,154.4z"/>
						<path class="st32" d="M237.3,159.5c0,0.4-0.3,0.7-0.7,0.7c-0.4,0-0.7-0.3-0.7-0.7c0-0.4,0.3-0.7,0.7-0.7
							C237,158.8,237.3,159.1,237.3,159.5z"/>
						<g>
							<rect x="235.3" y="125.3" class="st27" width="2.6" height="1.1"/>
							<g>
								<path class="st39" d="M244.1,129h-5c-0.6,0-1.1-0.5-1.1-1.1v-2.2c0-0.6,0.5-1.1,1.1-1.1h5c0.6,0,1.1,0.5,1.1,1.1v2.2
									C245.2,128.5,244.7,129,244.1,129z"/>
								<path class="st27" d="M244.1,129.4h-5c-0.9,0-1.6-0.7-1.6-1.6v-2.2c0-0.9,0.7-1.6,1.6-1.6h5c0.9,0,1.6,0.7,1.6,1.6v2.2
									C245.7,128.7,245,129.4,244.1,129.4z M239.1,125c-0.4,0-0.7,0.3-0.7,0.7v2.2c0,0.4,0.3,0.7,0.7,0.7h5c0.4,0,0.7-0.3,0.7-0.7
									v-2.2c0-0.4-0.3-0.7-0.7-0.7H239.1z"/>
								<path class="st39" d="M234.1,129h-5c-0.6,0-1.1-0.5-1.1-1.1v-2.2c0-0.6,0.5-1.1,1.1-1.1h5c0.6,0,1.1,0.5,1.1,1.1v2.2
									C235.3,128.5,234.8,129,234.1,129z"/>
								<path class="st27" d="M234.1,129.4h-5c-0.9,0-1.6-0.7-1.6-1.6v-2.2c0-0.9,0.7-1.6,1.6-1.6h5c0.9,0,1.6,0.7,1.6,1.6v2.2
									C235.7,128.7,235,129.4,234.1,129.4z M229.1,125c-0.4,0-0.7,0.3-0.7,0.7v2.2c0,0.4,0.3,0.7,0.7,0.7h5c0.4,0,0.7-0.3,0.7-0.7
									v-2.2c0-0.4-0.3-0.7-0.7-0.7H229.1z"/>
							</g>
						</g>
						<g>
							<path class="st36" d="M248.2,124.1c0,0,0.2-4.9-1.8-10.3c0.7,0.2,3.3,0,3.9,3.6C251,120.9,250.8,124.1,248.2,124.1z"/>
							<path class="st36" d="M225,124.2c0,0-0.2-5,1.8-10.3c-0.7,0.2-3.3,0-3.9,3.6C222.2,120.9,222.4,124.2,225,124.2z"/>
						</g>
					</g>
					<path class="st5" d="M259.4,146.4c0,0.2-0.1,0.3-0.1,0.5l-1.1,4.9c-0.1,0.2-0.1,0.4-0.2,0.7l0,0c-0.7,1.5-2.4,2.6-4,2.4
						l-0.9-0.1c-0.2,0-0.5-0.1-0.7-0.1c-1.7-0.5-3.1-2-3.5-3.6l-1-5.3c-0.1-0.8,0-1.4,0.3-2c0.1,0,0.1,0,0.2,0.1h0
						c3.1,1.3,7.6,1.2,9.1,2C258.1,145.9,258.8,146.1,259.4,146.4z"/>
					<path class="st40" d="M253.9,153.4l-0.8-0.1c-1.7-0.1-3.3-1.6-3.7-3.3l-0.9-4.7c-0.3-1.7,0.8-2.9,2.5-2.7l5.3,0.5
						c1.7,0.2,2.8,1.6,2.4,3.3l-1,4.3C257.3,152.3,255.6,153.6,253.9,153.4z"/>
					<g>
						<g>
							<g>
								<path class="st4" d="M278,282.3c0.7,6.4,3.6,19,3.2,25.3c-0.1,2.1-1.1,5.3-1.7,8.3v0c-0.2,1-0.4,1.9-0.5,2.7
									c0,0.3-0.1,0.5-0.1,0.7c0,0.2,0,0.4,0,0.6c0,0.9,1.4,2.4,2.3,2.7h4.9c0.8-0.3,2.1-1.9,2.1-2.7c0-1-0.2-2.8-0.4-4.8
									c-0.3-2.5-0.6-5.4-0.7-7c-0.3-11.3-0.1-39.9,0-50.2c0-0.5,0-0.9,0-1.3c0-1.6,0-2.4,0-2.4l-9.7,0.2c0,0.2-0.1,1,0,2.3
									c0,0.4,0,0.8,0,1.3C277.2,264.2,277.4,277,278,282.3z"/>
								<path class="st41" d="M279,320c0,0.9,1.4,2.4,2.3,2.7h4.9c0.8-0.3,2.1-1.9,2.1-2.7c0-1-0.2-2.8-0.4-4.8c-0.1,2.6-2,4-4.4,4
									c-2.2,0-3.4-1.6-3.8-3.2C279.2,317.5,279,318.9,279,320z"/>
								<path class="st9" d="M281.2,321.8h4.9c0.8-0.3,2-1.7,2-2.6c0,0.3,0,0.5,0,0.7c0,0.8-1.3,2.4-2.1,2.7h-4.9
									c-0.8-0.3-2.3-1.8-2.3-2.7c0-0.2,0-0.5,0.1-0.7C279.2,320.2,280.4,321.6,281.2,321.8z"/>
							</g>
							<g>
								<path class="st4" d="M288.8,320c0,0.8,1.3,2.4,2.1,2.7h4.9c0.9-0.3,2.3-1.8,2.3-2.7c0-0.2,0-0.4,0-0.6c0-0.2,0-0.4-0.1-0.7
									c-0.1-0.8-0.3-1.8-0.5-2.7v0c-0.6-2.9-1.6-6.2-1.7-8.3c-0.3-6.4,2.5-19,3.2-25.3c0.6-5.3,0.8-18,0.8-24.3v-1.3
									c0-1.3,0-2.1-0.1-2.3l-9.7-0.2c0,0,0,0.9,0,2.4v1.3c0.1,10.3,0.3,38.8,0,50.2c0,1.7-0.4,4.5-0.7,7v0.1
									C289,317.3,288.8,319,288.8,320z"/>
								<path class="st41" d="M298,320c0,0.9-1.4,2.4-2.3,2.7h-4.9c-0.8-0.3-2.1-1.9-2.1-2.7c0-1,0.2-2.8,0.4-4.8c0.1,2.6,2,4,4.4,4
									c2.2,0,3.4-1.6,3.8-3.2C297.7,317.5,298,318.9,298,320z"/>
								<path class="st9" d="M290.9,321.8h4.9c0.8-0.3,2.1-1.6,2.2-2.5c0,0.2,0.1,0.5,0.1,0.7c0,0.9-1.4,2.4-2.3,2.7h-4.9
									c-0.8-0.3-2.1-1.9-2.1-2.7c0-0.2,0-0.5,0-0.7C288.9,320.1,290.1,321.5,290.9,321.8z"/>
							</g>
							<g>
								<path class="st3" d="M280.1,153.1c2.1-0.5,3.7-1.8,3.7-2.9v-2.6c0-0.7,0-1.3,0-1.3h8.7v3.9c0,1.1,1.7,2.4,3.7,2.9
									c0.5,0.1-3.8,3.3-8.1,3.2C284.1,156.4,280.1,153.1,280.1,153.1z"/>
								<polygon class="st3" points="296.2,153.1 302.4,154.7 288.2,170.6 273.9,154.7 280.1,153.1 								"/>
								<path class="st21" d="M301.2,131.9c0-9-5.9-14.8-13.1-14.8c-7.2,0-13.1,5.8-13.1,14.8c0,9,5.9,6.8,13.1,6.8
									C295.3,138.6,301.2,140.9,301.2,131.9z"/>
								<path class="st21" d="M275.1,131.9c0,1.6,0.1,10.6,7.1,18.2c-2.7-9.6,1.5-19.3,1.5-19.3L275.1,131.9z"/>
								<path class="st21" d="M301.2,131.9c0,1.6,0.5,10.3-7.1,18.2c2.7-9.6-1.5-19.3-1.5-19.3L301.2,131.9z"/>
								<path class="st9" d="M283.8,146.3c0,0,0,0.6,0,1.3c1.5,1.3,3,2.1,4.3,2.1c1.2,0,2.8-0.8,4.3-2.2v-1.2H283.8z"/>
								<g>
									<path class="st40" d="M279.1,133.1c-0.3-0.7-0.4-1.3-0.9-1.3c-0.8,0,0.5,6.6,1.4,7.3C280,138.2,279.1,133.1,279.1,133.1z"
										/>
									<path class="st40" d="M297.2,133.1c0.3-0.7,0.4-1.3,0.9-1.3c0.8,0-0.5,6.6-1.3,7.3C296.3,138.2,297.2,133.1,297.2,133.1z"
										/>
								</g>
								<path class="st4" d="M278.7,128.5c0.2-1.9,0.4-7.9,9.5-7.9c0,0,0,0,0.1,0c9,0,9.2,6,9.4,7.9c0.2,1.9-1.1,12-2.1,14.6
									c-1,2.6-5.2,5.6-7.3,5.7c0,0-0.1,0-0.1,0c-2.1,0-6.3-3-7.3-5.7C279.7,140.4,278.5,130.4,278.7,128.5z"/>
								<path class="st21" d="M278,130.8v-7.5c0.9-0.8,2.6-2.9,3.7-3.5h12.9c0.4,0.2,1,0.7,1.5,1.3c-1,3-3.5,5.3-6.9,7
									c-0.2,0.1-0.3,0.2-0.6,0.3c-2.1,1-4.5,1.7-7,2.1L278,130.8z"/>
								<path class="st21" d="M293.8,120.3c-5.9-0.2-0.7,8.2,4.1,11.1C301.4,127.3,298.1,120.4,293.8,120.3z"/>
							</g>
							<path class="st42" d="M262.1,207.1c0,0-0.2,6.4-1,7.1c-1.2,0.9-0.6-1.3-1.6-2.6c-3.1,0.2-4.3,9.4-6,10.2
								c-1.7,0.8-2.1-8.8,0.1-11.1c2.2-2.3,4.6-5.6,4.6-5.6L262.1,207.1z"/>
							<path class="st17" d="M277.2,153.8L277.2,153.8l-0.2,2.7l-0.1,1.5l-1.2,14.8c0,0-0.1,1.7-0.2,4v0c-0.3,4.7-0.7,11.9-1.1,13.6
								c-0.3,1.3-11.5,18.1-11.5,18.1l-0.7-0.3l-4.7-2.2l-0.6-0.3c0,0,10.5-18.7,10.7-19.5c0.2-0.8,1.8-26.3,2.1-27.4
								c0.2-0.8,0.7-1.7,1.5-2.5c0.1-0.1,0.2-0.2,0.3-0.3c0.8-0.8,1.8-1.4,3.1-1.9c0.2-0.1,0.4-0.1,0.6-0.2c0.3-0.1,0.6-0.2,0.9-0.2
								c0.3-0.1,0.5-0.1,0.8-0.1c0,0,0.1,0,0.1,0c0,0,0.1,0,0.1,0C277,153.8,277.1,153.8,277.2,153.8z"/>
							<path class="st17" d="M305.1,214.8h-34c1.1-7.9,8.1-21.4,6.8-26.6c-0.1-0.5-0.3-1.2-0.5-2.1c-0.5-1.9-1.1-4.7-1.8-7.7
								c-0.1-0.5-0.2-1-0.3-1.6v0c-1.7-7.9-3.3-17.3-2.4-20.8c0.2-0.7,0.5-1.2,0.8-1.4h0l0.1-0.1l2-0.6l0.7-0.2c0,0,0.1,0,0.1,0
								c0,0,0.1,0,0.1,0l0.3-0.1l5-1.5c0,0,0.1,0.4,0.3,0.9c0.2,0.5,0.4,1.2,0.8,2c1,2.2,2.6,4.8,4.8,4.8c2.2,0,3.8-2.5,4.7-4.6
								c0.4-0.8,0.7-1.6,0.9-2.2c0.2-0.6,0.3-0.9,0.3-0.9l5.1,1.3l1.3,0.3l0.6,0.1c0.4,0.1,0.9,0.2,1.3,0.4c0.1,0.1,0.1,0.4,0.1,0.4
								c2.2,0.8,0.8,10.5-1,19.4c0,0,0,0,0,0c0,0.2-0.1,0.3-0.1,0.4c-0.3,1.4-0.6,2.8-0.8,4.1c-0.9,4.3-1.8,7.9-2.2,9.6
								c-0.6,2.5,0.8,7,2.4,11.9c0.4,1.3,0.9,2.6,1.3,3.8c0,0,0,0,0,0c0.4,1.1,0.8,2.3,1.2,3.3v0c0.2,0.7,0.4,1.3,0.6,2
								c0.1,0.4,0.2,0.7,0.3,1.1C304.6,212,305,213.5,305.1,214.8z"/>
							<path class="st5" d="M276.8,153.9c-0.3,0.1-0.5,0.2-0.8,0.3c0,0,0,0,0,0c-0.7,0.2-1.3,0.6-1.8,0.9c-0.4,0.3-0.8,0.6-1.2,0.9
								c-0.9,0.9-1.5,1.8-1.7,2.7c-0.3,1.2-1.9,27.9-2.2,28.7c-0.2,0.6-7.1,13-9.9,18.1c-0.2,0.4-0.4,0.7-0.6,1l-1.2-0.6v0l-0.6-0.3
								c0,0,10.5-18.7,10.7-19.5c0.2-0.8,1.8-26.3,2.1-27.4c0.2-0.8,0.7-1.7,1.5-2.5c0.1-0.1,0.2-0.2,0.3-0.3
								c0.8-0.8,1.8-1.4,3.1-1.9c0.2-0.1,0.4-0.1,0.6-0.2c0.3-0.1,0.6-0.2,0.9-0.2C276.2,153.9,276.5,153.9,276.8,153.9
								C276.7,153.9,276.8,153.8,276.8,153.9z"/>
							<path class="st11" d="M265.6,283c15.3,0,30.7,0,46,0c0-29.2-4.2-58.9-6.5-68.2c-11.3,0-22.7,0-34,0
								C269.3,222.2,265.6,253.8,265.6,283z"/>
							<path class="st5" d="M275.7,178.5c0.7,3,1.3,5.8,1.8,7.7l23.2,13.9c-1.6-4.8-3-9.3-2.4-11.9c0.4-1.7,1.3-5.3,2.2-9.6
								c-2.7,1.7-10.3,1.9-12.2-0.4C286.4,180.2,278.2,180.7,275.7,178.5z"/>
							<g>
								<path class="st4" d="M303.3,209.4c0,0-2,5.5-1.5,6.3c0.7,1.2,0.9-0.9,2.2-1.6c2.5,1.2,0.4,9.4,1.6,10.6
									c1.1,1.2,4.8-6.7,3.7-9.4c-1.1-2.7-1.9-6.2-1.9-6.2L303.3,209.4z"/>
								<path class="st17" d="M299.7,153.8c4.2,0.3,7.2,3,7.6,5.2c0.2,1.1,2.1,26.3,2.1,27.3c0,1.3-0.5,24.7-0.5,24.7l-6.9-0.8
									c0,0,0.4-26.4,0.1-27.7c-0.6-2.6-0.8-9.7-0.8-9.7L299.7,153.8z"/>
								<path class="st9" d="M303,183.2c0.3,1.1,0.5,20.9,0.1,27.1l-1.1-0.1c0,0,0.4-26.4,0.1-27.7c-0.6-2.6-0.8-9.7-0.8-9.7
									S302.3,180.4,303,183.2z"/>
							</g>
						</g>
						<g>
							<g>
								<g>
									<polygon class="st30" points="300.4,153.8 300.4,153.9 300.2,154.2 299.8,155.2 298.1,159.6 290.1,179.3 289.2,181.5 
										288.7,182.8 288.1,182.6 287.5,182.3 287.8,181.5 288.1,180.8 288.9,178.8 295.5,162.5 299,153.8 299.1,153.5 									"/>
								</g>
								<g>
									<path class="st30" d="M288.7,182.3l-0.6,0.2l-0.6,0.2l-0.5-1.3l-0.9-2.2l-8-19.8l-1.2-3l-0.9-2.4l0-0.1l-0.1-0.1
										c0.3-0.1,0.5-0.1,0.8-0.1c0,0,0.1,0,0.1,0c0,0,0.1,0,0.1,0l0.3-0.1l0.1,0.1l3.4,8.5l6.7,16.6l0.8,2l0.3,0.7L288.7,182.3z"
										/>
								</g>
							</g>
							<g>
								<rect x="282.5" y="181.6" class="st31" width="11.3" height="7.9"/>
							</g>
						</g>
					</g>
				</g>
				<g>
					<defs>
						<path id="SVGID_1_" d="M385,72.3c0,29.7-24.1,53.8-53.8,53.8c-29.7,0-53.8-24.1-53.8-53.8c0-29.7,24.1-53.8,53.8-53.8
							C360.9,18.5,385,42.6,385,72.3z"/>
					</defs>
					<clipPath id="SVGID_2_">
						<use xlink:href="#SVGID_1_"  style="overflow:visible;"/>
					</clipPath>
					<path class="st43" d="M385,72.3c0,29.7-24.1,53.8-53.8,53.8c-29.7,0-53.8-24.1-53.8-53.8c0-29.7,24.1-53.8,53.8-53.8
						C360.9,18.5,385,42.6,385,72.3z"/>
					<g class="st44">
						<path class="st45" d="M336.5,98.5c0,0-0.2,2.9-0.5,7.3c-0.1,0.6-0.1,1.1-0.1,1.7c-0.3,7.2-0.9,14.5-0.7,21.8
							c0.1,1.5,0.1,2.9,0.2,4.4c0,0,0,0.1,0,0.1c-0.1,2.9-0.1,5,0,5.6c0,0.4,0,1,0,1.7c0,1.1,0.1,2.5,0.1,4.1v0.5
							c-0.1,1.3-0.1,2.6,0,4c0,0,0,0.1,0,0.1c0,0.1,0,0.2,0,0.3c0.1,1.9,0.1,3.8,0,5.7c0,0.1,0,0.2,0,0.3c-0.1,2.3-0.2,4.6-0.1,6.8
							c0,2.2,0,4.4,0,6.6c0,2.1,0,4.2-0.2,6.2c-0.1,1.1,0.4,3.9-0.6,4.7c0,0,0,0-0.1,0c-0.6,0.3-2.6,0-3.3,0c-3,0-6.3,1.5-6.7-2.6
							c-0.1-1.4-0.4-2.9-0.3-4.3c0.3-4.1,0.1-8.2-0.1-12.4c-0.1-4.3-0.3-8.5-0.3-12.9c0-2.5-0.2-5.2,0.1-7.7
							c0.3-2.3-0.1-4.2-0.2-6.5c0-1.8,0-3.6,0-5.4c0-1.6,0-3.2-0.1-4.8c-0.1-2.1-0.8-4.1-0.9-6.2c-0.1-0.8,0.4-4-1.3-2.6
							c-1.5,1.3-1.1,4.5-1.2,6.3c-0.1,2.2,0.3,4.3,0.2,6.5c0,1.9-0.6,3.8-0.6,5.8c0,1.5,0.5,3,0.7,4.5c0.1,1.6,0,3.2-0.2,4.8
							c-0.2,2.3-0.6,4.6-0.7,7c-0.1,3.3-0.2,6.5-0.2,9.8c0,2.7-0.5,5.5-0.8,8.3c-0.2,1.6-0.2,3.4-0.2,5.1c0,2.4-0.1,5.1-0.5,7.4
							h-4.5c-0.5,0-4.8,0.5-5,0.3c-0.4-0.5-0.6-1.2-0.7-1.8c-0.3-1.9,0.1-3.9,0.3-5.7c0.3-2.4-0.3-4.8-0.2-7.1c0.1-2.1,0-4.2,0-6.3
							c0-2.4,0-4.7,0-7.1c0-1.8,0.6-3.4,0.6-5.3c0.1-4.1-0.7-8.2-0.7-12.3c0-2.8,0.5-5.5,0.5-8.3c0-1.5-0.6-2.9-0.6-4.4
							c0-1.4,0.4-2.4,0.4-3.8c-0.1-3.7-0.3-7.4-0.6-11.2c0-0.6,0-1.2-0.1-1.7c-0.3-4.3-0.5-7.3-0.5-7.3l25.3,0H336.5z"/>
						<path class="st5" d="M336.5,98.5c0,0-0.2,2.9-0.5,7.3c-0.1,0.6-0.1,1.1-0.1,1.7c-0.3,7.2-0.9,14.5-0.7,21.8
							c0.1,1.5,0.1,2.9,0.2,4.4c0,0,0,0.1,0,0.1c-0.1,2.9-0.1,5,0,5.6c0,0.4,0,1,0,1.7c0,1.1,0.1,2.5,0.1,4.1v1.3c0,1,0,2.1,0,3.2
							c0,0,0,0.1,0,0.1c0,1.6,0,3.3,0,4.8c0,0.4,0,0.8,0,1.2c0,0.1,0,0.2,0,0.3c-0.1,2.3-0.2,4.6-0.1,6.8c0,2.2,0,4.4,0,6.6
							c0,2.1,0,4.2-0.2,6.2c-0.1,1.1,0.4,3.9-0.6,4.7c0,0,0,0-0.1,0h-4.2c-0.1-8.7-0.4-28.2-0.4-31.5c1.1-0.4,2.3-4.8,2.9-6.7
							c2.2-7.7,2.3-24.2,1.3-34.9c-0.1-0.6-0.1-1.2-0.2-1.7c-0.4-3.3-1-5.9-1.6-7.3H336.5z"/>
						<g>
							<g>
								<g>
									<path class="st12" d="M333.6,177.2c0,2.2-1.6,5.4-3.6,5.4s-3.6-3.2-3.6-5.4c0-2.2,1.6-2.5,3.6-2.5S333.6,175,333.6,177.2z"
										/>
								</g>
							</g>
							<g>
								<g>
									<path class="st13" d="M330.8,182.2c0,0-0.2-2.1,1-3.5c1.2-1.4,3.1-0.7,4,0c0.8,0.7-0.5,4.7-0.5,4.7L330.8,182.2z"/>
								</g>
							</g>
							<g>
								<g>
									<path class="st13" d="M329.6,182.2c0,0,0.2-2.1-1-3.5c-1.2-1.4-3.1-0.7-4,0c-0.9,0.7,0.5,4.7,0.5,4.7L329.6,182.2z"/>
								</g>
							</g>
							<g>
								<g>
									<path class="st14" d="M335.8,184.5c0,1.7-2.6,1.8-5.7,1.8c-3.2,0-5.7-0.1-5.7-1.8c0-1.7,2.6-3.1,5.7-3.1
										C333.3,181.4,335.8,182.8,335.8,184.5z"/>
								</g>
							</g>
							<g>
								<g>
									<rect x="324.4" y="184.9" class="st13" width="11.5" height="1.4"/>
								</g>
							</g>
						</g>
						<path class="st5" d="M320.4,143c-0.2,2.3-0.6,4.6-0.7,7c-0.1,3.3-0.2,6.5-0.2,9.8c0,2.7-0.5,5.5-0.8,8.3
							c-0.2,1.6-0.2,3.4-0.2,5.1c0,2.4-0.1,5.1-0.5,7.4h-2.9c-0.2-8.7-0.5-28.2-0.5-31.5C316.1,148.6,318.3,146.3,320.4,143z"/>
						<g>
							<g>
								<g>
									<path class="st12" d="M310,177.2c0,2.2,1.6,5.4,3.5,5.4s3.6-3.2,3.6-5.4c0-2.2-1.6-2.5-3.6-2.5S310,175,310,177.2z"/>
								</g>
							</g>
							<g>
								<g>
									<path class="st13" d="M312.8,182.2c0,0,0.2-2.1-1-3.5c-1.2-1.4-3.1-0.7-4,0c-0.9,0.7,0.5,4.7,0.5,4.7L312.8,182.2z"/>
								</g>
							</g>
							<g>
								<g>
									<path class="st13" d="M314,182.2c0,0-0.2-2.1,1-3.5c1.2-1.4,3.1-0.7,4,0c0.9,0.7-0.4,4.7-0.4,4.7L314,182.2z"/>
								</g>
							</g>
							<g>
								<g>
									<path class="st14" d="M307.8,184.5c0,1.7,2.6,1.8,5.7,1.8c3.2,0,5.7-0.1,5.7-1.8c0-1.7-2.6-3.1-5.7-3.1
										C310.4,181.4,307.8,182.8,307.8,184.5z"/>
								</g>
							</g>
							<g>
								<g>
									<rect x="307.8" y="184.9" class="st13" width="11.5" height="1.4"/>
								</g>
							</g>
						</g>
						<g>
							<g>
								<polygon class="st3" points="332.1,57.7 321.6,65.6 310.6,57.4 315,50.2 315.8,48.9 315.8,48.8 316.1,47.8 316.2,47.5 
									327.2,47.5 327.2,47.8 327.5,48.7 327.6,48.9 328.3,50.2 								"/>
							</g>
						</g>
						<path class="st5" d="M327.5,48.7c-0.5,0.5-0.9,0.8-0.9,0.8c-1.3,1.2-3.5,2.1-5,2.1c-1.4,0-3.7-0.9-5-2.1
							c-0.3-0.3-0.6-0.6-0.9-0.8l0.3-0.9l0.1-0.3h11l0.1,0.3L327.5,48.7z"/>
						<path class="st46" d="M336.6,54l-7.9-3c-0.3,7.3-3.1,7.5-6.9,7.5c0,0-0.1,0-0.1,0c0,0-0.1,0-0.1,0c-2.6,0-6.8-0.3-7-7.6
							l-7.9,2.8c0,0,4,12.4,0,15.6c0.5,4.7-0.4,36.4-0.4,36.4h15.4h15.4c0,0-0.3-33.2,0.1-37.9C333.2,64.6,336.6,54,336.6,54z"/>
						<path class="st47" d="M317.9,97.3c0,0.9,0,1.9-0.1,2.9c-0.1,1.9-0.2,3.7-0.3,5.6c0,0.1,0,0.2,0,0.3c-0.2,2.2-0.9,4.4-1,6.6
							c-0.1,2,0,4.2-0.4,6.1h0c-1.2-0.5-1.5-2.5-2.5-3.4c-1-1-2.3-1.1-3.4-2.2c-1.6-1.7-4-3.2-4.4-5.6c-0.3-1.8,0.4-3.8,0.5-5.6
							c0.1-3.9,0.2-7.7,0.3-11.6c0.1-4.3,0.1-8.5,0.2-12.8c0-0.9-0.8-7.6-0.1-8.1c0.3-0.3,0.6-0.6,0.9-1c1.2-2.1,1-5.8,0.4-9
							c-0.2-1.2-0.5-2.4-0.7-3.3c-0.1-0.4-0.2-0.8-0.3-1.2c-0.2-0.8-0.4-1.3-0.4-1.3l7.8-2.5c0,0,0,0,0,0l0.1,0l0.1,0
							c0,0.2,0,0.4,0,0.6v0.1c0,0.2,0,0.4,0.1,0.6c0,0.1,0,0.1,0,0.2c0.2,2.4,0.1,6.5,0,7.6c-0.1,1.4,0.7,8.3,0.6,10
							c-0.1,1.7,0.6,11.1,2.1,16.7c0,0.1,0.1,0.3,0.1,0.4C317.9,89.1,318,92.9,317.9,97.3z"/>
						<path class="st5" d="M336.4,66.7c-0.5,6.5-2.3,32.6-2.8,39l3.5,0c0,0-0.3-33.2,0.1-37.9C336.8,67.5,336.6,67.1,336.4,66.7z"/>
						<path class="st4" d="M307.7,107.1c0,0,0.8,1,1,1.9c0.3,0.9,0,3-0.9,1.1c-0.9-1.9-1.1,2.3-1.1,2.3s3.7,5.4,3.4,6
							c-0.3,0.6-5.5-3.9-6.3-5c-0.8-1.1-0.3-5.6-0.3-5.6L307.7,107.1z"/>
						<path class="st48" d="M327.2,134.5l2-1c0.8-0.4,1.7,0,1.9,0.9l0.9,3.4c0.2,0.9-0.2,2.2-0.9,2.8l-2.3,2
							c-0.7,0.6-1.5,0.4-1.7-0.5l-1.2-5.1C325.9,136,326.4,134.9,327.2,134.5z"/>
						<path class="st48" d="M312,142l-1,2c-0.4,0.8-0.3,2.1,0.3,2.8l0.9,1.1c0.6,0.7,1.5,0.7,2-0.1l0.4-0.7c0.5-0.8,0.9-2.2,0.9-3.2
							v-0.8c0-0.9-0.6-1.9-1.4-2.1C313.4,140.7,312.4,141.2,312,142z"/>
						<polygon class="st48" points="327.1,135.6 326.3,133.4 326.8,133.2 327.6,135.4 						"/>
						
							<rect x="330.7" y="134.7" transform="matrix(0.8904 -0.4552 0.4552 0.8904 -25.0627 165.8749)" class="st48" width="2.5" height="0.6"/>
						
							<rect x="324.9" y="139.8" transform="matrix(0.8351 -0.5501 0.5501 0.8351 -23.2959 202.5256)" class="st48" width="2.4" height="0.6"/>
						
							<rect x="330" y="140.7" transform="matrix(0.9008 -0.4342 0.4342 0.9008 -28.8271 157.4853)" class="st48" width="0.6" height="2.3"/>
						<polygon class="st48" points="310.9,149.9 310.4,149.5 312.5,146.5 313,146.8 						"/>
						
							<rect x="314.3" y="140.9" transform="matrix(0.73 -0.6834 0.6834 0.73 -11.2091 254.0292)" class="st48" width="3.2" height="0.6"/>
						
							<rect x="311.2" y="141.3" transform="matrix(0.7334 -0.6797 0.6797 0.7334 -13.8156 249.7281)" class="st48" width="0.6" height="2.4"/>
						<polygon class="st48" points="316.6,147.5 313.8,145.8 314.1,145.3 316.9,146.9 						"/>
						<path class="st18" d="M306.5,53.6c-1.2,1.1-1.5,1.9-2.6,2.6c-1.1,0.7-3,9.3-3.3,11c-0.3,1.7-1.6,9.3-1.9,10
							c-0.4,0.6,0.4,3.5,0.4,4.1c-0.1,0.6,0.4,7.1,0.1,7.8c-0.3,0.7-0.6,1.7-0.5,2.8c0.1,1.1-0.1,9.1,0,9.8c0,0.7-1.2,5.6,0,7
							c1.2,1.4,2.6,2.4,3.3,3.5c0.6,1.1,0.7,1.1,0.8,1.3c0.8-0.5,7.2-5.5,7.2-5.5s-1.7-3.6-2.2-5c-0.5-1.4-0.7-7.6-0.8-9.6
							c-0.1-2.1,0.4-13.5,0.4-14.5c0-1,0-6.7,0.8-8c0.4-0.7,1.7-5.8,1.2-10.3C308.7,56.8,306.5,53.6,306.5,53.6z"/>
						<path class="st5" d="M317.6,105.7c-0.4,7.1-1.1,13.3-1.5,13.1c-0.7-0.4-2.9-9.8-3.8-13.1c-0.1-0.3-0.1-0.5-0.2-0.6
							c-0.7-2.4-4.1-31.6-4.3-32.8c-0.1-0.4-0.6-1.9-1.3-4c-1.5-4.5-2.6-7.2-2.2-7.7c0.1-0.2,2.5-1.2,3.3-1.6
							c0.4-0.2-2.2-3.9-1.8-4.2c0.3-0.2,0.7-0.4,1.1-0.5c2.8-1.4,7.2-3,7.3-2.8v0.1c0,0.2,0,0.4,0.1,0.6c0,0.1,0,0.1,0,0.2
							c0.2,2.4,0.1,6.5,0,7.6c-0.1,1.4,0.8,8.3,0.6,10c-0.1,1.7,0.6,11.1,2.3,16.7C318.2,89.6,318,98.2,317.6,105.7z"/>
						<path class="st49" d="M317.9,97.3c0,0.9,0,1.9-0.1,2.9c-0.1,1.9-0.2,3.7-0.3,5.6c0,0.1,0,0.2,0,0.3c-0.4,7-1,13-1.4,12.8
							c0,0-0.1,0-0.1-0.1h0c-0.7-1-2.6-9.8-3.4-13c-0.1-0.3-0.1-0.5-0.2-0.6c-0.6-2.4-3.8-31.6-3.9-32.8c0-0.4-0.5-1.9-1.2-4
							c-1.4-4.5-2.4-7.2-2-7.7c0.1-0.1,1.5-0.8,2.4-1.3c0.2-0.1,0.4-0.2,0.6-0.3c0.2-0.1-0.7-1.8-1.3-3c-0.3-0.6-0.5-1.1-0.3-1.2
							c0.3-0.2,0.6-0.3,1-0.5c2.6-1.4,5.7-2.9,6.4-3.3c0,0,0,0,0,0c0.1,0,0.1-0.1,0.1-0.1c0,0,0,0,0,0c0.1,0.2,0.1,0.3,0.1,0.6v0.1
							c0,0.2,0,0.4,0.1,0.6c0,0.1,0,0.1,0,0.2c0.2,2.4,0.1,6.5,0,7.6c-0.1,1.4,0.7,8.3,0.6,10c-0.1,1.7,0.6,11.1,2.1,16.7
							c0,0.1,0.1,0.3,0.1,0.4C317.9,89.1,318,92.9,317.9,97.3z"/>
						<path class="st47" d="M337.3,107.4C337.3,107.4,337.2,107.4,337.3,107.4c-0.2,1.1-0.7,1.9-1.3,2.6l0,0v0c0,0-0.1,0.1-0.1,0.1
							c-0.9,1.1-2.1,2-3,3c-1.1,1.2-2.3,1.2-3.4,2.2c-0.9,0.9-1.2,2.7-2.3,3.3c-0.1,0.1-0.1,0.1-0.2,0.1h0c-0.4-1.9-0.3-4.1-0.4-6.1
							c-0.1-2.1-0.7-4.2-1-6.2v-0.1c0-0.1,0-0.2,0-0.3c0-0.1,0-0.2,0-0.3c0-0.5-0.1-0.9-0.1-1.4c-0.1-1.4-0.1-2.8-0.2-4.2
							c0-0.5,0-0.9-0.1-1.4c0-0.3,0-0.5,0-0.8v-0.5c0-2.1,0-4.1,0-5.9c0-0.4,0-0.8,0.1-1.1c0-0.2,0-0.4,0-0.5c0-0.3,0.1-0.7,0.1-1
							c0,0,0,0,0,0c0.1-0.8,0.2-1.4,0.3-2c0-0.1,0-0.2,0.1-0.3c1.6-5.6,2.3-15,2.1-16.7c-0.2-1.7,0.7-8.6,0.6-10
							c-0.1-1.1-0.2-5.2,0-7.6c0-0.1,0-0.1,0-0.2c0-0.2,0-0.4,0.1-0.6v-0.1c0-0.2,0-0.4,0-0.6l0.1,0l0.1,0c0,0,0,0,0,0l7.8,2.5h0
							c0,0,0,0,0,0v0c0,0.1-0.1,0.4-0.3,0.9c0,0.1-0.1,0.3-0.1,0.4c-0.1,0.3-0.2,0.7-0.3,1.1c-0.3,1-0.5,2.1-0.8,3.4
							c-0.6,3.2-0.8,6.9,0.4,9c0.2,0.3,0.4,0.6,0.6,0.8c0.1,0.1,0.2,0.2,0.3,0.2c0.6,0.5-0.2,7.2-0.2,8.1c0,4.3,0.7,8.4,0.8,12.7
							c0.1,3.9,0.1,7.7,0.3,11.6C337.5,103.5,337.5,105.6,337.3,107.4z"/>
						<path class="st18" d="M360,97c-0.3,0.1-0.3,0.1-1.5,0.3c-1.2,0.2-2.7,1.1-4.5,1.7c-1.8,0.5-5.8-2.4-6.5-2.7
							c-0.7-0.2-8-3.4-9.1-3.7c-1.1-0.3-0.2-1.1-0.7-1.7c-0.2-0.2-0.6-2.1-0.8-3.6c-0.5-3.5-1-7.7-1-8.3c0-1-0.1-6.7-0.8-8
							c-0.4-0.7-1.7-5.8-1.2-10.3c0.4-3.8,2.6-7.1,2.6-7.1c1.2,1.1,1.5,1.9,2.6,2.6c1.1,0.7,3,9.3,3.3,11c0.3,1.7,1.1,5.6,1.4,6.2
							c0.4,0.6,0.7,5.4,0.8,6c0,1,1.5,4.3,1.8,5c0.8,2.1,4.8,3.4,6.1,3.4c1.5,0,5,0.5,5,0.5s0.4,1.3,0.8,3c0.4,1.6,0.9,3.4,1.3,4.6
							C359.9,96.4,360,96.8,360,97z"/>
						<path class="st5" d="M336.5,68.3c-0.1,0.3-0.2,0.5-0.3,0.8c-0.3,1-0.6,1.9-0.8,2.5v0c-0.1,0.3-0.2,0.6-0.2,0.7
							c-0.1,1.1-3.6,30.3-4.3,32.8c0,0.2-0.1,0.4-0.2,0.6c-0.8,3.1-2.8,11.4-3.6,12.8c-0.1,0.1-0.1,0.2-0.2,0.2c0,0-0.1,0-0.1-0.1
							c0,0,0,0,0,0c-0.4-0.7-1-6.1-1.4-12.3v-0.1c0-0.2,0-0.3,0-0.5c0-0.5,0-0.9-0.1-1.4c-0.1-1.4-0.1-2.8-0.2-4.2
							c0-0.9-0.1-1.8-0.1-2.7c0-2.1,0-4.1,0-5.9c0-0.4,0-0.8,0.1-1.1c0-0.2,0-0.4,0-0.5c0-0.3,0.1-0.7,0.1-1c0,0,0,0,0,0
							c0.1-0.9,0.2-1.7,0.4-2.2c1.7-5.6,2.5-15,2.3-16.7c-0.2-1.7,0.7-8.6,0.6-10c-0.1-1.1-0.2-5.2,0-7.6c0-0.1,0-0.1,0-0.2
							c0-0.2,0-0.4,0.1-0.6v-0.1c0-0.1,1.1,0.2,2.5,0.7c0,0,0,0,0.1,0c1.5,0.5,3.3,1.3,4.7,2c0.1,0,0.2,0.1,0.2,0.1
							c0.3,0.1,0.6,0.3,0.8,0.4c0.5,0.2-2.1,4-1.7,4.2c0.8,0.4,3.1,1.5,3.3,1.6C339.1,61.2,338.1,63.8,336.5,68.3z"/>
						<path class="st49" d="M335.6,68.3c-0.3,0.8-0.5,1.5-0.6,2v0c-0.3,1-0.5,1.7-0.5,1.9c-0.1,1.1-3.3,30.3-3.9,32.8
							c-0.1,0.2-0.1,0.4-0.2,0.6c-0.8,3.2-2.7,12-3.4,13h0c0,0,0,0,0,0c0,0,0,0.1-0.1,0.1c-0.3,0.2-1-5.8-1.3-12.8
							c0-0.1,0-0.2,0-0.3c0-0.5-0.1-0.9-0.1-1.4c-0.1-1.4-0.1-2.8-0.2-4.2c0-0.5,0-0.9-0.1-1.4c0-0.3,0-0.5,0-0.8v-0.5
							c0-2.1,0-4.1,0-5.9c0-0.4,0-0.8,0.1-1.1c0-0.2,0-0.4,0-0.5c0-0.3,0.1-0.7,0.1-1c0,0,0,0,0,0c0.1-0.8,0.2-1.4,0.3-2
							c0-0.1,0-0.2,0.1-0.3c1.6-5.6,2.3-15,2.1-16.7c-0.2-1.7,0.7-8.6,0.6-10c-0.1-1.1-0.2-5.2,0-7.6c0-0.1,0-0.1,0-0.2
							c0-0.2,0-0.4,0.1-0.6v-0.1c0-0.2,0.1-0.4,0.1-0.6c0,0,0,0,0,0c0,0,0,0,0.1,0.1c0,0,0,0,0,0c0.4,0.2,1.3,0.7,2.5,1.3
							c0,0,0,0,0.1,0c1.2,0.6,2.6,1.3,3.8,2c0.2,0.1,0.5,0.3,0.7,0.4c0.1,0.1,0.2,0.1,0.3,0.2c0.1,0.1,0,0.5-0.3,1.1
							c-0.6,1.2-1.6,2.9-1.3,3.1c0.1,0.1,0.3,0.2,0.6,0.3c0.9,0.5,2.4,1.2,2.5,1.3C338,61.2,337,63.8,335.6,68.3z"/>
						<path class="st25" d="M321.7,26.8c-4,0-7.3,1.8-7.3,4.1v12.7c0,1.4,0.5,3,1.2,3.6c0.3,0.3,0.7,0.7,1.2,1
							c1.3,1.1,3.5,2.1,5,2.1c1.5,0,3.7-0.9,5-2.1c0,0,0.5-0.5,1.2-1c0.6-0.6,1.2-2.2,1.2-3.6V30.9
							C328.9,28.6,325.7,26.8,321.7,26.8z"/>
						<path class="st50" d="M328.1,33c-0.2-1-0.7-2.2-1.7-2.8c-0.8-0.4-2.6-0.3-3.4-0.1c-0.7,0.2-2,1.1-2.3,1.7
							c-0.3-0.5-0.5-1.8-1.3-2c-0.5-0.1-1.7,1.1-1.9,1.5c-0.2-0.6-0.2-1.1-0.5-1.7c-0.4,0.4-1,1.3-1.3,1.9c-0.5,0.9-1.2,2.5-1.4,4.3
							c0,0.6-0.8,2.5-1.2,2.9c0-1.2-0.6-3.5-0.7-4.7c-0.5,0.8-1.2,1.3-1.6,2.2c0-1.5-0.1-2.9,1-4.1c-0.5-0.2-0.9,0.3-1.3,0.6
							c0.1-0.4,0.8-2.2,1-2.2c-0.4,0.1-0.6-0.1-1.1,0.1c0.6-1.4,2-2,2.6-2.3c0.3-0.5,0-0.7-0.7-1.6c1.2-1,3.2-1.4,3.9-1.5
							c0.5-0.1,1.4,0.1,1.7-0.3c-0.4-0.2-1-0.3-1.4-0.5c1.1-0.4,2.4-0.4,3.6-0.4c0.9,0,1.9,0.2,2.8,0.1c1.6-0.1,2.9,0.4,4.2,1.3
							c0.8,0.6,2.7,1.5,3.4,2.1c-1.2,0.3-1.6,0.6-1,1c0.5,0.3,1.1,0.5,1.6,0.8c0.4,0.3-1.4,0.7-1.4,1c0.7,1,1.7,2.8,2.2,4.5
							c-1,0.1-1.8-0.7-2.4-0.9c-0.5,0.8-0.5,2.7-0.8,2.7C328.9,36.8,328.2,33.8,328.1,33z"/>
						<g>
							<path class="st51" d="M340.1,65.6c0,0,0,25.3,0,25.4c0,0,6.9-0.4,7.6-0.3c1.2,0.3,2.4,0.7,3.7,0.9c1.7,0.2,4.5,0.3,6.3-0.2
								c1.5-0.5,1.9-0.9,3.8-0.6c1.5,0.2,3,1.1,4.7,0.8c1.2-0.2,2-1.1,3.3-0.9c2.2,0.2,4,0.5,6.1,0.5c0-0.9,0.1-2.1,0-3
								c-0.1-1-0.6-2.1-0.6-3.1c0-0.9,0.3-1.4,0.4-2.2c0.2-1.3,0.1-2.6,0.1-3.9c0.1-1.4-0.5-2.3-0.5-3.6c0-1,0.5-1.9,0.6-2.9
								c0.1-0.4,0.2-6.6-0.1-6.6C375,65.6,340.1,65.6,340.1,65.6z"/>
							<g>
								<g>
									<path d="M344.1,69.8c0.3-0.1,0.8-0.1,1.3-0.1c0.7,0,1.2,0.1,1.6,0.4c0.3,0.2,0.5,0.6,0.5,1c0,0.5-0.4,1-1,1.2v0
										c0.5,0.1,1.2,0.6,1.2,1.4c0,0.5-0.2,0.9-0.5,1.1c-0.4,0.4-1,0.5-2,0.5c-0.5,0-0.9,0-1.1-0.1V69.8z M344.8,72.1h0.7
										c0.8,0,1.2-0.4,1.2-1c0-0.7-0.5-0.9-1.2-0.9c-0.3,0-0.5,0-0.6,0.1V72.1z M344.8,74.9c0.1,0,0.4,0,0.6,0
										c0.8,0,1.5-0.3,1.5-1.1c0-0.8-0.7-1.1-1.5-1.1h-0.6V74.9z"/>
									<path d="M352,74.3c0,0.4,0,0.8,0,1.1h-0.7l0-0.7h0c-0.2,0.3-0.6,0.8-1.3,0.8c-0.6,0-1.4-0.4-1.4-1.8v-2.4h0.7v2.3
										c0,0.8,0.2,1.3,0.9,1.3c0.5,0,0.8-0.3,1-0.7c0-0.1,0.1-0.2,0.1-0.4v-2.5h0.7V74.3z"/>
									<path d="M354.2,70.2v1.2h1.1v0.6h-1.1v2.2c0,0.5,0.1,0.8,0.6,0.8c0.2,0,0.3,0,0.4-0.1l0,0.6c-0.1,0.1-0.4,0.1-0.7,0.1
										c-0.3,0-0.6-0.1-0.8-0.3c-0.2-0.2-0.3-0.6-0.3-1.1v-2.2h-0.6v-0.6h0.6v-1L354.2,70.2z"/>
									<path d="M359.5,74.3c0,0.4,0,0.8,0,1.1h-0.7l0-0.7h0c-0.2,0.3-0.6,0.8-1.3,0.8c-0.6,0-1.4-0.4-1.4-1.8v-2.4h0.7v2.3
										c0,0.8,0.2,1.3,0.9,1.3c0.5,0,0.8-0.3,1-0.7c0-0.1,0.1-0.2,0.1-0.4v-2.5h0.7V74.3z"/>
									<path d="M360.7,69.4h0.7V72h0c0.1-0.2,0.3-0.4,0.5-0.5c0.2-0.1,0.5-0.2,0.8-0.2c0.5,0,1.4,0.3,1.4,1.7v2.4h-0.7v-2.3
										c0-0.7-0.2-1.2-0.9-1.2c-0.5,0-0.9,0.3-1,0.7c0,0.1,0,0.2,0,0.4v2.5h-0.7V69.4z"/>
									<path d="M344.1,79.9c0.3-0.1,0.8-0.1,1.3-0.1c0.7,0,1.2,0.1,1.6,0.4c0.3,0.2,0.5,0.6,0.5,1c0,0.5-0.4,1-1,1.2v0
										c0.5,0.1,1.2,0.6,1.2,1.4c0,0.5-0.2,0.9-0.5,1.1c-0.4,0.4-1,0.5-2,0.5c-0.5,0-0.9,0-1.1-0.1V79.9z M344.8,82.2h0.7
										c0.8,0,1.2-0.4,1.2-1c0-0.7-0.5-0.9-1.2-0.9c-0.3,0-0.5,0-0.6,0.1V82.2z M344.8,85c0.1,0,0.4,0,0.6,0
										c0.8,0,1.5-0.3,1.5-1.1c0-0.8-0.7-1.1-1.5-1.1h-0.6V85z"/>
									<path d="M350.9,85.5l-0.1-0.5h0c-0.2,0.3-0.7,0.6-1.2,0.6c-0.8,0-1.2-0.6-1.2-1.2c0-1,0.9-1.5,2.5-1.5v-0.1
										c0-0.3-0.1-0.9-0.9-0.9c-0.4,0-0.8,0.1-1.1,0.3l-0.2-0.5c0.3-0.2,0.8-0.4,1.3-0.4c1.2,0,1.5,0.9,1.5,1.7v1.5
										c0,0.4,0,0.7,0.1,1H350.9z M350.8,83.4c-0.8,0-1.7,0.1-1.7,0.9c0,0.5,0.3,0.7,0.7,0.7c0.5,0,0.9-0.3,1-0.7
										c0-0.1,0-0.2,0-0.2V83.4z"/>
									<path d="M352.7,82.5c0-0.4,0-0.8,0-1.1h0.7l0,0.7h0c0.2-0.4,0.7-0.8,1.3-0.8c0.6,0,1.4,0.3,1.4,1.7v2.4h-0.7v-2.4
										c0-0.7-0.2-1.2-0.9-1.2c-0.5,0-0.9,0.3-1,0.8c0,0.1,0,0.2,0,0.3v2.5h-0.7V82.5z"/>
									<path d="M358.2,80.3v1.2h1.1V82h-1.1v2.2c0,0.5,0.1,0.8,0.6,0.8c0.2,0,0.3,0,0.4-0.1l0,0.6c-0.1,0.1-0.4,0.1-0.7,0.1
										c-0.3,0-0.6-0.1-0.8-0.3c-0.2-0.2-0.3-0.6-0.3-1.1V82h-0.6v-0.6h0.6v-1L358.2,80.3z"/>
									<path d="M363.5,84.4c0,0.4,0,0.8,0,1.1h-0.7l0-0.7h0c-0.2,0.3-0.6,0.8-1.3,0.8c-0.6,0-1.4-0.4-1.4-1.8v-2.4h0.7v2.3
										c0,0.8,0.2,1.3,0.9,1.3c0.5,0,0.8-0.3,1-0.7c0-0.1,0.1-0.2,0.1-0.4v-2.5h0.7V84.4z"/>
									<path d="M367,85.5L367,85h0c-0.2,0.3-0.7,0.6-1.2,0.6c-0.8,0-1.2-0.6-1.2-1.2c0-1,0.9-1.5,2.5-1.5v-0.1
										c0-0.3-0.1-0.9-0.9-0.9c-0.4,0-0.8,0.1-1.1,0.3l-0.2-0.5c0.3-0.2,0.8-0.4,1.3-0.4c1.2,0,1.5,0.9,1.5,1.7v1.5
										c0,0.4,0,0.7,0.1,1H367z M366.9,83.4c-0.8,0-1.7,0.1-1.7,0.9c0,0.5,0.3,0.7,0.7,0.7c0.5,0,0.9-0.3,1-0.7c0-0.1,0-0.2,0-0.2
										V83.4z"/>
									<path d="M368.8,82.5c0-0.4,0-0.8,0-1.1h0.7l0,0.7h0c0.2-0.4,0.7-0.8,1.3-0.8c0.6,0,1.4,0.3,1.4,1.7v2.4h-0.7v-2.4
										c0-0.7-0.2-1.2-0.9-1.2c-0.5,0-0.9,0.3-1,0.8c0,0.1,0,0.2,0,0.3v2.5h-0.7V82.5z"/>
								</g>
								<polygon class="st26" points="368.6,83.5 368.6,83.5 368.6,83.5 								"/>
							</g>
						</g>
						<path class="st4" d="M360.7,95.6c-0.3,0.1-0.6,0.2-0.9,0.3c-0.3-1.2-0.8-3-1.3-4.6c0.7-0.1,0.9-0.8,1.3-1
							c0.4-0.3,1.4-1.7,2.2-1.6c0.8,0,1.6,1.4,1.6,1.8C363.6,92.2,362,95.2,360.7,95.6z"/>
					</g>
				</g>
			</g>
		</g>
	</g>
	<g>
		<g>
			<path class="st4" d="M90.6,225.4c0,0,1.9,0,2.1-0.4c0.3-0.5-0.5-0.1-1.1-0.4c-0.1-1.2,3.2-2.2,3.4-2.9c0.2-0.7-3.4-0.2-4.1,0.7
				c-0.7,1-1.8,2-1.8,2L90.6,225.4z"/>
			<path class="st19" d="M75.9,221.8l0.5,7.7c0,0,1.4,1,3,2.2v0c0.3,0.2,0.7,0.5,1.1,0.7c1.7,1.1,3.4,2.1,4,2.1
				c1.8,0,6.5-9.1,6.5-9.1l-1.7-1.3c0,0-4.2,6.2-4.3,5.9c0-0.1-0.9-0.7-2.2-1.6c-0.4-0.2-0.7-0.5-1.1-0.8
				C79.4,226,76.8,223.8,75.9,221.8z"/>
			<path class="st5" d="M84.9,230.8c0.4-0.4,3.9-5.6,4.5-6.5l-0.2-0.1c0,0-4.2,6.2-4.3,5.9V230.8z"/>
		</g>
		<g>
			<path class="st3" d="M103.6,224c-0.4,0.2-0.8,0.5-1.1,0.8c-1.4,1.4-1.8,3.7-1.8,3.7s-3.6-4-4-5.8c0.8-0.5,2-1.9,2.9-3.1
				c1-1.3,1.8-2.5,1.8-2.5S105.9,222.9,103.6,224z"/>
			<path class="st5" d="M103.6,224c-0.4,0.2-0.8,0.5-1.1,0.8c-0.6-0.7-1.3-1.5-1.8-2.2c-0.6-0.9-1-1.9-1.2-3c1-1.3,1.8-2.5,1.8-2.5
				S105.9,222.9,103.6,224z"/>
			<path class="st4" d="M109.2,218.7c-0.1,0.8-0.5,3.8-0.7,4c-0.2,0.1-0.9-0.2-1-0.3c-0.3-0.1-0.5,0.2-0.6,0.4
				c-0.1,0.2,0,0.7-0.1,0.8c-0.1,0.1-0.6-0.2-0.7-0.2c0,0.1,0.3,0.6,0.2,0.7c-0.1,0.1-0.3-0.1-0.6,0c-0.2,0-0.3,1.1-0.7,1.3
				c-1.2,0.4-2.9-1.7-4-3.3c-2.4-3.4-1.3-9,0.5-10.3c0.6-0.4,1.3-0.8,2-1.1c1.2-0.4,2.5-0.5,3.6,0c1.6,0.8,2.8,2.2,3,3.7
				C110.5,216.6,110.2,218.3,109.2,218.7z"/>
			<g>
				<rect x="109.2" y="254.4" class="st46" width="1.4" height="39.6"/>
				<rect x="108.8" y="293.9" class="st26" width="2.2" height="1.6"/>
				<path class="st26" d="M105,256h5.6v-1.6H105c-0.4,0-0.7,0.3-0.7,0.7v0.2C104.3,255.7,104.6,256,105,256z"/>
			</g>
			<path class="st4" d="M110.2,256.5c-0.2,0.2-2.5-0.5-2.9-1c-0.4-0.5-0.3-1.3-0.3-1.6c0-0.3,0-0.4-0.3-0.7c0.3-0.4,1.5-1.8,1.5-1.8
				s0.3,0.4,0.5,0.5c0.9,0.4,2,0.5,2.7,1.2c0.4,0.4-0.2,3.1-1.2,2.7c-0.5-0.2-0.5-1.4-1.1-0.8c-0.9,0.9,0,0.7,0.5,0.9
				C110.2,256.1,110.7,256.2,110.2,256.5z"/>
			<g>
				<path class="st32" d="M88.5,294.1c0,0.1,0,0.2-0.1,0.3c0,0.1,0,0.1-0.1,0.2l-0.1,0.2c0,0.1-0.1,0.1-0.1,0.2
					c-0.1,0.1-0.2,0.2-0.3,0.3c-0.1,0.1-0.2,0.1-0.4,0.2c-0.1,0-0.2,0-0.3,0H75.9c0,0-0.1-0.1-0.1-0.1c-0.4-0.9,0-2.9,0.4-4.5
					c0.1-0.5,0.3-1,0.4-1.3H81c0.2,0.6,0.7,1.1,1.4,1.6c0.1,0.1,0.2,0.2,0.3,0.2c1.1,0.7,2.7,1.2,4.5,1.2
					C88.2,292.5,88.6,293.4,88.5,294.1z"/>
				<path class="st5" d="M87.6,294.8H75.7c0,0.3,0.1,0.6,0.2,0.7h11.3c0.6,0,1-0.5,1.2-1.1C88.2,294.7,88,294.8,87.6,294.8z"/>
			</g>
			<path class="st30" d="M100.9,233.7c-0.5,1.1-1.5,3.9-2.4,6.9l-0.2,0.6c-0.1,0.2-0.1,0.4-0.2,0.7c-0.3,1-1.2,3.1-2.1,4.9
				c-0.1,0.2-0.2,0.4-0.3,0.6c0,0,0,0,0,0.1c-0.5,1.2-1,2.2-1.3,2.7c-0.2,0.3-0.3,0.5-0.3,0.5s-0.3-0.1-0.7-0.2
				c-2.5-0.7-11.1-3-12.3-3.1V247c0-0.1,0-0.2,0-0.2c0,0,0-0.1,0-0.1c0.1-1.2,0.5-3,1.2-5.1c0.3-0.9,0.6-1.9,1-2.9
				c2.1-5.7,5.1-12.3,7-14.2c2.9-3,7.2-3.6,8-4.2c0,0.1,0,0.3,0.1,0.4c0.4,1.1,1.9,3.2,2.7,4.7c0.1,0.2,0.2,0.3,0.3,0.5c0,0,0,0,0,0
				c0,0.1,0.1,0.2,0.1,0.3c0.1,0.3,0.2,0.5,0.2,0.6C102.1,228.2,101.9,231.6,100.9,233.7z"/>
			<path class="st5" d="M102,227c0-0.3-0.3-0.8-0.7-1.5c0,1.6-0.2,4.6-1.1,6.6c-0.6,1.4-1.8,5.1-2.8,8.8c-0.7,2.3-3.8,9.1-4,9.5
				c0.4,0.1,0.7,0.2,0.7,0.2s3.3-6.6,4-8.8c1.1-3.4,2.2-6.8,2.8-8.2C101.9,231.6,102.1,228.2,102,227z"/>
			<path class="st52" d="M94.3,252.6c0,0-0.8,2.8-1.7,6.3c-0.2,0.6-0.3,1.3-0.5,1.9c0,0.1-0.1,0.3-0.1,0.4c-0.1,0.4-0.2,0.8-0.3,1.2
				c-0.4,1.6-0.9,3.1-1.2,4.4c-0.1,0.3-0.2,0.7-0.3,0.9c0,0.1,0,0.1,0,0.2c-0.3,1-0.5,1.7-0.6,2.1c-0.1,0.2-0.2,0.5-0.3,1
				c-0.1,0.3-0.2,0.6-0.3,0.9c-0.1,0.3-0.2,0.7-0.3,1.1c-0.1,0.4-0.3,0.8-0.4,1.3c-0.5,1.6-1.1,3.5-1.7,5.5
				c-0.2,0.5-0.3,1.1-0.5,1.6c-0.4,1.1-0.7,2.2-1,3.2c-0.2,0.8-0.5,1.5-0.7,2.2c-0.1,0.3-0.2,0.6-0.3,0.9c-0.1,0.2-0.2,0.5-0.2,0.7
				c-0.2,0.5-0.3,0.9-0.4,1.3c-0.1,0.3-0.2,0.6-0.2,0.8c-0.1,0.2-0.1,0.3-0.2,0.5c-0.1,0.2-0.1,0.3-0.1,0.3c0,0,0,0.1,0,0.1h-0.1
				l-0.4,0l-4.1-0.3l-2.1-0.2l-0.2,0c0,0,0.6-1.8,1.5-4.3c0.8-2.3,1.8-5.3,2.8-8.1c1.3-3.9,2.4-7.4,2.6-8.5
				c0.2-1.5-0.2-6.9-0.7-11.8v-0.1c0-0.6-0.1-1.2-0.1-1.7c0-0.3-0.1-0.6-0.1-0.9c0-0.5-0.1-1-0.1-1.4c0-0.1,0-0.2,0-0.3
				c-0.1-1.9-0.2-3.4-0.1-4.2c0,0,0,0,0,0c0-0.1,0-0.2,0-0.2l11.1,3L94.3,252.6z"/>
			<path class="st5" d="M94.3,252.6c0,0-0.8,2.8-1.7,6.3c-0.2,0.6-0.3,1.3-0.5,1.9c0,0.1-0.1,0.3-0.1,0.4c-0.1,0.4-0.2,0.8-0.3,1.2
				c-0.4,1.6-0.9,3.1-1.2,4.4c-0.1,0.3-0.2,0.7-0.3,0.9c0,0.1,0,0.1,0,0.2c-0.3,1-0.5,1.7-0.6,2.1c-0.1,0.2-0.2,0.5-0.3,1
				c-0.1,0.3-0.2,0.6-0.3,0.9c-0.1,0.3-0.2,0.7-0.3,1.1c-0.1,0.4-0.3,0.8-0.4,1.3c-0.5,1.6-1.1,3.5-1.7,5.5
				c-0.2,0.5-0.3,1.1-0.5,1.6c-0.4,1.1-0.7,2.2-1,3.2c-0.2,0.8-0.5,1.5-0.7,2.2c-0.1,0.3-0.2,0.6-0.3,0.9c-0.1,0.2-0.2,0.5-0.2,0.7
				c-0.2,0.5-0.3,0.9-0.4,1.3c-0.1,0.3-0.2,0.6-0.2,0.8c-0.1,0.2-0.1,0.3-0.2,0.5c-0.1,0.2-0.1,0.3-0.1,0.3c0,0,0,0.1,0,0.1h-0.1
				l-0.4,0c0-0.1,0-0.1,0-0.2c0.1-0.3,0.2-0.6,0.3-0.9c1.6-5.8,5.2-18.4,5.9-20.7c0.1-0.4,0.3-1.3,0.6-2.3c0-0.1,0-0.1,0-0.2
				c0-0.1,0-0.2,0.1-0.3c0.1-0.4,0.2-0.7,0.3-1.1c1.1-4.2,2.6-10.4,3.3-13.5L94.3,252.6z"/>
			<g>
				<path class="st32" d="M93,289.5c-0.5,1.5-1.5,5-0.7,6h11.3c1.6,0,1.8-3,0-3c-3.2,0-5.6-1.6-6.2-3H93z"/>
				<path class="st5" d="M104,294.8H92c0,0.3,0.1,0.6,0.2,0.7h11.3c0.6,0,1-0.5,1.2-1.1C104.6,294.7,104.3,294.8,104,294.8z"/>
			</g>
			<path class="st5" d="M94.3,252.6c0,0-2.7,10.2-4.1,15.2c0,0.1,0,0.1,0,0.2c0,0-0.1-0.1-0.1-0.1c-2.4-3.1-6.4-6.8-7.8-9.7v-0.1
				c-0.3-3.8-0.6-7.3-0.5-8.5c0,0,0,0,0,0c0-0.1,0-0.2,0-0.2L94.3,252.6z"/>
			<path class="st8" d="M98.8,268.6c0,2.3,0,22.6,0,22.6h-7.2c0,0,1.3-17.2,0.6-20.9c-0.2-1.1-1.1-2.5-2.2-4
				c-2.6-3.5-7.2-7.6-8.2-10.5c-1.2-3.8-0.8-7.4-0.7-8.7c0,0,0,0,0,0c0-0.2,0-0.3,0-0.3l13.1,3.2C94.3,249.9,98.8,266.3,98.8,268.6z
				"/>
			<path class="st5" d="M94.3,249.9l-0.4-0.1c1.1,4,4.2,16,4.2,18c0,2.4,0,23.3,0,23.3h0.8c0,0,0-20.2,0-22.6
				C98.8,266.3,94.3,249.9,94.3,249.9z"/>
			<path class="st5" d="M98.3,237.7c0,0.2-0.2,2.2,0.2,2.8c-0.7,2.2-2.3,5.2-2.8,6.8c-1.9-1.6-2.9-2.6-3.2-3.3
				c-1.4-2.7-1.8-13.8-0.7-16.1l0.4-0.8c3-3.9,6.3-0.5,6.5,2.2C98.8,232.1,98.4,235.8,98.3,237.7z"/>
			<path class="st53" d="M91.3,228.1c-1,2.3,0.2,13.5,1.8,16c1.3,2.1,13.8,10.3,13.8,10.3l2-2.9c0,0-10.8-9.8-11.1-11.1
				c-0.3-1.3,1.4-8.8,1.1-11.5c-0.4-2.7-4.4-5.7-7.2-1.6L91.3,228.1z"/>
			<path class="st12" d="M103.3,210.5c-0.1,0-0.2,0.1-0.4,0.1c-1,0.4-2.5,1.6-3.1,3.3c-0.2,0.5-0.3,0.9-0.4,1.4
				c0.4,1.4,1.1,2.7,1.6,3.8c0.5-0.6,0.8-1.2,1-1.4c-0.1-0.4,0-2.7,1.1-2.7c1.2,0,1.5,1.6,1.1,3.1c0.8-0.8,1.5-1.7,2.3-2.4
				C104.9,213.8,103.7,212.4,103.3,210.5z"/>
		</g>
		<g>
			<path class="st5" d="M88.5,294.1c-0.4,0.1-0.9,0.1-1.3,0.2c-1.6,0.1-3.7,0.2-5.1,0.4c-0.2,0-0.4,0-0.6,0.1l0,0l-0.1,0.4l-1.9,0.3
				l-0.5-0.7l-0.2-0.2c0,0,0,0,0,0c-0.1-0.1-0.2-0.2-0.2-0.4c0,0,0-0.1,0-0.2c0-0.1-0.1-0.3-0.1-0.4c0,0,0-0.1,0-0.1
				c0-0.2,0-0.4,0-0.5c0,0,0,0,0,0c0-0.2,0-0.4,0-0.6c0-0.4,0-0.9,0-1.3c0-0.5,0-0.9,0-1.3c0,0,0-0.1,0-0.2c-0.1-0.5-0.3-1.6-0.8-3
				c0.8-2.3,1.8-5.3,2.8-8.1c0.4,5.1,1,10.3,1.5,11.1c0.2,0.3,0.5,0.5,0.9,0.8c0.1,0.1,0.3,0.2,0.4,0.2c-0.1,0.2-0.1,0.3-0.2,0.5
				c-0.1,0.2-0.1,0.3-0.1,0.3c0,0,0,0.1,0,0.1h-0.1c1.1,0.7,2.7,1.2,4.5,1.2C88.2,292.5,88.6,293.4,88.5,294.1z"/>
			<path class="st3" d="M75.9,215.5c0,1.1,0.2,2.3,0.2,2.3s-3.2,0.7-4.7-0.9c0.4-1.1,0.7-2.4,1-3.4c0.3-1.1,0.5-2,0.5-2
				s2.4,1.5,3.5,2.1C76,213.9,75.9,214.7,75.9,215.5z"/>
			<path class="st5" d="M75.9,215.5c-0.6-0.2-2.7-0.9-3.4-2.1l0.5-2c0,0,2.4,1.5,3.5,2.1C76,213.9,75.9,214.7,75.9,215.5z"/>
			<path class="st4" d="M79.1,204.5c0.6,1,0.8,3.3,0.8,4c-0.1,0.8,0.6,2,0.7,2.3c0.1,0.3-0.5,0.5-0.8,0.5c-0.4,0.1-0.2,0.8-0.1,0.9
				c0.1,0.1,0,0.4-0.1,0.4c-0.2,0.1-0.5,0.1-0.5,0.1s0.3,0.2,0.3,0.3c0,0.3-0.3,0.3-0.5,0.4c-0.3,0.1-0.2,1-0.4,1.2
				c-0.4,0.5-2.7,0-3.9-0.7c-0.9-0.6-2.9-1.9-3.4-3.5c-0.7-2.5-0.8-5.5,1.3-7C74.3,202.4,77.6,202.1,79.1,204.5z"/>
			<path class="st54" d="M76.6,257.2c-0.9,2.3-1.5,4.1-1.6,4.5v0c0,0,0,0,0,0c-0.3,0.9-0.9,3.1-1.6,4.7c0,0,0,0,0,0
				c-0.2,0.5-0.5,0.9-0.7,1.3c0,0,0,0.1-0.1,0.1c-0.1,0.2-0.4,0.6-0.7,1.2c-0.1,0.3-0.3,0.6-0.4,0.9c-2.3,4.9-7.2,16.7-7.2,18.5v0
				c0.1,1.5,2.8,3.7,4.5,4.9c0.4,0.3,0.8,0.5,1,0.7c0.1,0.1,0.2,0.2,0.3,0.3c0.4,0.6-0.6,1.2-1.2,0.9c-0.7-0.3-5.8-2.2-6.5-2.3
				c-0.2,0-0.4-0.1-0.6-0.1c-0.6-0.2-1.5-0.3-1.9-0.7c-0.1-0.1-0.1-0.2-0.2-0.2c-0.1-0.1-0.1-0.2-0.1-0.3c0-0.1,0-0.2,0-0.3
				c0-0.1,0-0.2,0-0.3c0.1-0.5,0.4-1.2,0.7-1.9c0.4-0.8,0.8-1.5,1.1-2c0.6-1.2,2.4-13.4,4-18.1c0-0.1,0-0.1,0-0.1
				c0.1-0.4,0.3-0.7,0.5-1.1c1.2-2.4,3.4-4.6,4-5.5c0.5-0.8,1.3-4,1.6-6.6l0.4,0.1L76.6,257.2z"/>
			<path class="st55" d="M75,261.7C75,261.7,75,261.7,75,261.7c-0.3,0.9-0.9,3.1-1.6,4.7c0,0,0,0,0,0c-0.2,0.5-0.5,0.9-0.7,1.3
				c0,0,0,0.1-0.1,0.1c-0.1,0.2-0.4,0.6-0.7,1.2c-0.1,0.3-0.3,0.6-0.4,0.9c-2.3,4.9-7.2,16.7-7.2,18.5c-0.4-2.1,4-13.8,6.1-18.4
				c0.3-0.6,0.5-1.1,0.7-1.3c0,0,0,0,0.1-0.1c0.3-0.4,0.5-0.8,0.7-1.4c0,0,0,0,0,0C72.6,265.5,74.9,261.7,75,261.7z"/>
			<polygon class="st26" points="61.3,293.2 59.5,292.6 59.4,291.5 62.1,292.3 			"/>
			<path class="st26" d="M69.7,293.9c-0.2-0.1-0.5-0.4-1-0.7c-1.7,0-7.2-1.9-8.6-4.3c-0.5,0.9-0.9,1.9-0.7,2.5
				c0.3,1,2.1,1.3,2.8,1.5c1.3,0.5,3.1,1.3,4.5,1.9c0.9,0.4,1.8,0.6,2.1,0.7C69.6,295.6,70.7,294.6,69.7,293.9z"/>
			<g>
				<path class="st4" d="M87.8,293.6c-0.8,0.1-6.1,0.6-6.8,0.9c-0.2,0-0.4,0.1-0.6,0.2c-0.6,0.2-1.4,0.4-2,0.2
					c-0.1,0-0.2-0.1-0.3-0.1c-0.1-0.1-0.2-0.1-0.2-0.2c-0.3-0.3-0.4-0.9-0.4-1.6c-0.1-1.1,0-2.4,0-3.2c0-1.3-4-13.3-4.6-18.1
					c-0.1-0.9-0.1-1.8,0-2.7c0-0.4,0.1-0.9,0.2-1.3c0.1-0.4,0.2-0.9,0.2-1.3c0,0,0,0,0,0c0.2-1.2,0.5-2.2,0.5-2.7
					c0.1-1.2-1-5.7-2.1-8c-0.1-0.3-0.2-0.5-0.4-0.7c-1.6-2.5,3.7-16.7,4.7-16.2c0.1,1.5,2,20.9,2.3,22.1c0.3,1.2,0.9,4.8,0.6,6.5
					c0,0.1,0,0.1,0,0.2c0,0.3,0,0.7,0,1.3c0,4.9,1.1,19.2,2,20.6c0.8,1.3,4.2,2.1,6.2,2.4c0.5,0.1,0.9,0.1,1.2,0.2c0,0,0.1,0,0.1,0
					c0,0,0.1,0,0.1,0c0.1,0,0.2,0.1,0.2,0.1C89.1,292.7,88.5,293.6,87.8,293.6z"/>
				<polygon class="st26" points="80.3,295.2 78.5,295.5 77.9,294.5 80.6,294.1 				"/>
				<path class="st26" d="M88.2,292.1c-0.2,0-0.7-0.1-1.2-0.2c-1.5,0.7-7.3,1.5-9.6,0.1c0,1.1,0.1,2.1,0.5,2.5
					c0.7,0.8,2.5,0.2,3.2,0.1c1.4-0.1,3.3-0.3,4.9-0.4c1-0.1,1.9-0.2,2.2-0.4C88.8,293.6,89.3,292.3,88.2,292.1z"/>
			</g>
			<path class="st20" d="M79.8,222.2c-2.1-1.5-2.8-3.3-3.8-4.5c-1.2,0.2-3.3-0.4-4.5-1.4c-0.2,1.4-1.2,3.1-1.2,5.4
				c0,4.9,1.6,8.1,1.7,10c0,1.2-0.1,4.4-1.2,6.3c0,0-1.8,2.1-2.2,5.2c-0.9,6.7-2.8,22.7-3.4,24.4h14.8c-1.2-6.2-1.5-26.5-1.5-28.1
				c0,0,0,0,0,0c0.1-3.9,0.3-11.2,0.2-11.7C81.2,227.8,81.9,223.7,79.8,222.2z"/>
			<path class="st5" d="M69.7,243.2c0.5-3.2,2.3-5.4,2.3-5.4c1.1-1.9,1.3-5.2,1.2-6.5c-0.1-2-1.8-5.3-1.7-10.4c0-1.6,0.5-2.9,0.8-4
				c-0.3-0.2-0.6-0.3-0.8-0.5c-0.2,1.4-1.2,3.1-1.2,5.4c0,4.9,1.6,8.1,1.7,10c0,1.2-0.1,4.4-1.2,6.3c0,0-1.8,2.1-2.2,5.2
				c-0.9,6.7-2.8,22.7-3.4,24.4h2.4C68.3,263.6,68.8,249.5,69.7,243.2z"/>
			<path class="st56" d="M76.6,201.9C76.6,201.8,76.6,201.8,76.6,201.9c-1.3-0.3-2.8-0.4-3.9,0.3c-0.9,0.5-2,1.3-2.4,1.9
				c-1.7,2.4-1.8,7-0.9,11.3c0.8,3.6,0.8,5.2,1,8.2c1.1-3.7,1.4-6.9,2.5-10.1c0.4-1.1,1.2-3.2,0.5-4.5c-0.8-1.4,0.1-2.1,0.6-2.1
				c0.8,0,1.8,1.3,1.7,2.4c0.6-0.5-0.2-2.4,0.2-3c0.4-0.5,2.1-0.3,2.1-0.3l0.6-3.4C77.9,202.3,77.3,202,76.6,201.9z"/>
			<path class="st56" d="M78.6,202.7c1.3,0,2.8,2.1,1.8,4.8l-3.1-0.8L78.6,202.7z"/>
			<path class="st5" d="M65.9,267.7h6.8c0,0,0,0.1-0.1,0.1c-0.1,0.2-0.4,0.6-0.7,1.2h-6.6c0-0.1,0-0.1,0-0.1
				C65.5,268.4,65.7,268,65.9,267.7z"/>
			<path class="st5" d="M78.9,267.7c0,0.3,0,0.7,0,1.3H73c0-0.4,0.1-0.9,0.2-1.3H78.9z"/>
			<g>
				<path class="st57" d="M83.6,252.7v5.1h-0.7v-5.1c0-1.7-1.3-3.1-3-3.3c-0.1,0-0.2,0-0.2,0c-0.6,0-1.2,0.2-1.7,0.5
					c-0.2,0.1-0.3,0.2-0.5,0.4c-0.7,0.6-1.1,1.5-1.1,2.4v5.1h-0.7v-5.1c0-0.2,0-0.3,0-0.5c0.1-1,0.6-1.9,1.3-2.5
					c0.2-0.1,0.3-0.3,0.5-0.4l0,0c0.6-0.4,1.3-0.6,2-0.6C81.8,248.8,83.6,250.5,83.6,252.7z"/>
				<rect x="71.7" y="255.2" class="st51" width="14.2" height="2.9"/>
				<g>
					<polygon class="st58" points="84.7,255.5 85.9,255.2 85.9,258.2 84.7,258.2 					"/>
					<polygon class="st59" points="86.1,255.9 84.7,255.5 84.7,255.9 					"/>
				</g>
				<rect x="71.4" y="255.9" class="st58" width="14.7" height="14.9"/>
				<rect x="78.9" y="255.9" class="st37" width="7.2" height="14.9"/>
				<g>
					<polygon class="st58" points="72.9,255.5 71.7,255.2 71.7,258.2 72.9,258.2 					"/>
					<polygon class="st59" points="71.4,255.9 72.9,255.5 72.9,255.9 					"/>
				</g>
				<path class="st60" d="M82.7,253.3v5.2h-0.7v-5.2c0-1.8-1.5-3.3-3.3-3.3c-0.5,0-1,0.1-1.4,0.3c-0.3,0.1-0.5,0.3-0.8,0.5
					c-0.4,0.4-0.8,0.9-0.9,1.4c-0.1,0.3-0.2,0.7-0.2,1v5.2h-0.7v-5.2c0-1.2,0.5-2.2,1.3-2.9c0.3-0.2,0.6-0.4,0.9-0.6
					c0.5-0.3,1.1-0.4,1.8-0.4c0.4,0,0.7,0,1.1,0.1C81.5,249.9,82.7,251.5,82.7,253.3z"/>
				<g>
					<path class="st61" d="M82.5,260h-0.2c-0.3,0-0.6-0.3-0.6-0.6v-1.6c0-0.3,0.3-0.6,0.6-0.6h0.2c0.3,0,0.6,0.3,0.6,0.6v1.6
						C83.1,259.7,82.9,260,82.5,260z"/>
					<path class="st62" d="M83.1,257.5c0,0.1,0,0.1,0,0.2v1.6c0,0.3-0.3,0.6-0.6,0.6h-0.2c-0.2,0-0.4-0.1-0.5-0.3
						c0.1,0.3,0.3,0.4,0.6,0.4h0.2c0.3,0,0.6-0.3,0.6-0.6v-1.6C83.1,257.7,83.1,257.6,83.1,257.5z"/>
					<path class="st37" d="M81.8,259.6V258c0-0.3,0.3-0.6,0.6-0.6h0.2c0.2,0,0.3,0.1,0.5,0.2c-0.1-0.2-0.3-0.4-0.6-0.4h-0.2
						c-0.3,0-0.6,0.3-0.6,0.6v1.6c0,0.2,0.1,0.3,0.2,0.4C81.8,259.7,81.8,259.6,81.8,259.6z"/>
				</g>
				<g>
					<path class="st61" d="M75.3,260h-0.2c-0.3,0-0.6-0.3-0.6-0.6v-1.6c0-0.3,0.3-0.6,0.6-0.6h0.2c0.3,0,0.6,0.3,0.6,0.6v1.6
						C75.9,259.7,75.6,260,75.3,260z"/>
					<path class="st62" d="M75.8,257.5c0,0.1,0,0.1,0,0.2v1.6c0,0.3-0.3,0.6-0.6,0.6H75c-0.2,0-0.4-0.1-0.5-0.3
						c0.1,0.3,0.3,0.4,0.6,0.4h0.2c0.3,0,0.6-0.3,0.6-0.6v-1.6C75.9,257.7,75.9,257.6,75.8,257.5z"/>
					<path class="st37" d="M74.5,259.6V258c0-0.3,0.3-0.6,0.6-0.6h0.2c0.2,0,0.4,0.1,0.5,0.2c-0.1-0.2-0.3-0.4-0.6-0.4h-0.2
						c-0.3,0-0.6,0.3-0.6,0.6v1.6c0,0.2,0.1,0.3,0.2,0.4C74.6,259.7,74.5,259.6,74.5,259.6z"/>
				</g>
			</g>
			<path class="st4" d="M78.1,245.3c0.8,2.4,3.6,2.7,3.4,3.6c-0.2,0.7-0.8-0.2-1.4,0c0,1,0.3,1.4,0.4,1.7c0.2,0.5-2.3,0.7-2.6-0.4
				c-0.7-2.2-0.2-2.3-1.3-3.8C76.6,245.9,77.7,245.2,78.1,245.3z"/>
			<path class="st19" d="M74,220.3c2,0,2.6,1.4,2.5,5.3c-0.1,3.8-0.2,6-0.2,6.6c0.1,0.6,2.6,14.4,2.6,14.4l-2.2,0.9
				c0,0-3.9-11.9-4.6-13.5c-0.7-1.6-0.3-9.1-0.1-10C72.3,223.2,73,220.3,74,220.3z"/>
			<path class="st5" d="M78.6,246.7l0.3-0.1c0,0-2.5-13.8-2.6-14.4C76.3,233.6,78,244.1,78.6,246.7z"/>
		</g>
	</g>
</g>
</svg>
